<svg xmlns="http://www.w3.org/2000/svg" width="121" height="121" viewBox="0 0 121 121">
  <g id="Grupo_13697" data-name="Grupo 13697" transform="translate(-297 -5237)">
    <circle id="Elipse_639" data-name="Elipse 639" cx="60.5" cy="60.5" r="60.5" transform="translate(297 5237)" fill="#abb7be"/>
    <path id="Trazado_13252" data-name="Trazado 13252" d="M53.993,0A53.993,53.993,0,1,1,0,53.993,53.993,53.993,0,0,1,53.993,0Z" transform="translate(304 5244)" fill="#fff"/>
    <g id="animal" transform="translate(322.379 5203.898)">
      <g id="Grupo_13633" data-name="Grupo 13633" transform="translate(0.938 70.104)">
        <g id="Grupo_13631" data-name="Grupo 13631" transform="translate(0.478 0)">
          <g id="Grupo_13630" data-name="Grupo 13630">
            <g id="Grupo_13629" data-name="Grupo 13629">
              <path id="Trazado_13224" data-name="Trazado 13224" d="M72.985,130.4l-9.16-36.3a9.309,9.309,0,0,0-6.431-6.677,19.388,19.388,0,0,0-5.322-.8c-4.451,0-11.488,1.168-16.238,2.066a5.958,5.958,0,0,0-4.847,6.081l.059,1.562-18.1,3.719a2.5,2.5,0,0,0-1.531,3.04l1.836,7.664a9.711,9.711,0,0,0,9.444,7.449h7.116a2.873,2.873,0,0,1,2.838,2.427l1.535,9.775Z" transform="translate(-11.313 -86.611)" fill="#fef0dc"/>
            </g>
          </g>
        </g>
        <path id="Trazado_13225" data-name="Trazado 13225" d="M404.724,209.668c5.213-9.519,2.5-26.415,1.286-32.455h3l8.188,32.455Z" transform="translate(-355.051 -165.883)" fill="#fcddb3"/>
        <path id="Trazado_13226" data-name="Trazado 13226" d="M168.03,119.4c-2.872,3-6.921,6.458-10.32,6.458-4.35,0-22.455,0-22.455-10.514,0-6.84-12.141-6.435-12.141-11.912,0-3.769,5.751-7.11,5.751-7.11l-.059-1.562a5.96,5.96,0,0,1,4.847-6.082c4.751-.9,11.788-2.066,16.239-2.066a19.409,19.409,0,0,1,5.322.8,9.311,9.311,0,0,1,6.431,6.678Z" transform="translate(-108.656 -86.613)" fill="#da875d"/>
        <path id="Trazado_13227" data-name="Trazado 13227" d="M304.437,105.66a9.343,9.343,0,0,0-2.772-4.629c-3.155-.264-6.855.3-9.575-.647-5.4-1.873-5.776,1.626-5.776,1.626l5.3,28.587a2.627,2.627,0,0,0,2.817,2.136,9.927,9.927,0,0,0,8.188-5.886l.014-.033a.813.813,0,0,1,1.557.335,42.2,42.2,0,0,1-1.136,9.724c2.734-1.1,5.586-3.631,7.763-5.9Z" transform="translate(-251.448 -98.179)" fill="#c76d3d"/>
        <ellipse id="Elipse_633" data-name="Elipse 633" cx="1.325" cy="1.708" rx="1.325" ry="1.708" transform="translate(23.038 8.265)"/>
        <g id="Grupo_13632" data-name="Grupo 13632" transform="translate(0 12.588)">
          <path id="Trazado_13228" data-name="Trazado 13228" d="M7.562,190l1.4,5.063a.924.924,0,0,0,1.514.438c1.295-1.192,3.254-3.446,3.418-6.289a1.845,1.845,0,0,0-2.106-1.916l-2.7.379A1.85,1.85,0,0,0,7.562,190Z" transform="translate(-7.495 -187.276)" fill="#756f6f"/>
          <path id="Trazado_13229" data-name="Trazado 13229" d="M21.036,189.212c-.164,2.844-2.123,5.1-3.418,6.29a.924.924,0,0,1-1.513-.438l-.447-1.617a8.972,8.972,0,0,0,2.436-5.286,1.8,1.8,0,0,0-.109-.732l.946-.133A1.843,1.843,0,0,1,21.036,189.212Z" transform="translate(-14.637 -187.278)" fill="#5b5555"/>
        </g>
      </g>
      <path id="Trazado_13230" data-name="Trazado 13230" d="M273.893,77.422l5.3,28.587a2.626,2.626,0,0,0,2.817,2.136,9.923,9.923,0,0,0,8.188-5.886c2.582-5.859,6.106-15.106,5.323-20.426-1.208-8.218-10.461-4.163-15.857-6.036s-5.776,1.625-5.776,1.625Z" transform="translate(-239.643 -6.563)" fill="#e09977"/>
      <path id="Trazado_13231" data-name="Trazado 13231" d="M319.549,110.219a9.928,9.928,0,0,1-8.187,5.886,2.625,2.625,0,0,1-2.817-2.136l-1.11-5.985c6.4,3.236,10.708-3.709,12.532-11.3a14.334,14.334,0,0,0-2.427-12.339c3.559.12,6.668.922,7.333,5.45C325.655,95.113,322.131,104.361,319.549,110.219Z" transform="translate(-268.989 -14.523)" fill="#da875d"/>
      <g id="Grupo_13634" data-name="Grupo 13634" transform="translate(0 67.745)">
        <path id="Trazado_13232" data-name="Trazado 13232" d="M113.576,80.657a.938.938,0,0,0,.527-.878l-.059-1.562a4.99,4.99,0,0,1,4.084-5.124c2.654-.5,5.128-.919,7.37-1.246l2.772,14.941a.938.938,0,1,0,1.844-.342l-2.891-15.583a1.583,1.583,0,0,1,.674-.916c.773-.49,2.1-.429,3.84.174a19.607,19.607,0,0,0,6.4.624c5.044-.044,8.17.158,8.832,4.662.568,3.864-1.3,10.935-5.253,19.912a8.99,8.99,0,0,1-7.414,5.33,1.68,1.68,0,0,1-1.811-1.373l-1.6-8.638a.938.938,0,1,0-1.844.342l1.6,8.638a3.546,3.546,0,0,0,3.495,2.914c.109,0,.218,0,.329-.015a10.866,10.866,0,0,0,8.962-6.442,95.086,95.086,0,0,0,3.738-9.782l2.055,8.143a.938.938,0,0,0,1.819-.459l-2.866-11.354a21.182,21.182,0,0,0,.647-7.49c-.419-2.852-1.762-4.672-4.1-5.564a18.654,18.654,0,0,0-6.6-.7,18.354,18.354,0,0,1-5.773-.521c-2.33-.809-4.167-.8-5.458.013a3.4,3.4,0,0,0-1.332,1.581c-2.356.337-4.97.775-7.783,1.307a6.9,6.9,0,0,0-5.61,7.038l.029.768-6.279,1.29a.938.938,0,1,0,.378,1.837l3.031-.623c-1.48,1.42-2.852,3.293-2.852,5.364,0,3.182,3.1,4.643,6.1,6.055,3.1,1.462,6.037,2.842,6.037,5.857a8.538,8.538,0,0,0,3.232,6.8,17.975,17.975,0,0,0,7.065,3.31,54.559,54.559,0,0,0,13.1,1.344c2.728,0,6.027-1.869,9.817-5.557l2.368,9.386a.938.938,0,1,0,1.819-.459l-3.921-15.539a.938.938,0,0,0-1.819.459l1.019,4.037c-3.662,3.74-6.953,5.8-9.285,5.8a52.809,52.809,0,0,1-12.624-1.284c-5.9-1.53-8.892-4.319-8.892-8.292,0-4.205-3.779-5.984-7.114-7.554-3.128-1.473-5.027-2.5-5.027-4.358C108.352,83.953,113.047,80.982,113.576,80.657Z" transform="translate(-92.019 -67.745)"/>
        <path id="Trazado_13233" data-name="Trazado 13233" d="M1.643,185.133l.8,3.366a10.616,10.616,0,0,0,10.356,8.168H19.91a1.925,1.925,0,0,1,1.911,1.635l1.535,9.775a.938.938,0,0,0,1.853-.291l-1.535-9.775a3.792,3.792,0,0,0-3.764-3.219H12.794a8.746,8.746,0,0,1-8.532-6.729l-.476-1.988a1.852,1.852,0,0,0,.768-.426c1.309-1.205,3.534-3.707,3.72-6.925a2.74,2.74,0,0,0-.209-1.22l2.031-.417a.938.938,0,1,0-.378-1.837l-3.354.689a2.793,2.793,0,0,0-1.262-.112l-2.7.379a2.788,2.788,0,0,0-2.3,3.5l1.4,5.063a1.9,1.9,0,0,0,.142.362Zm.383-6.669a.9.9,0,0,1,.636-.4s2.787-.388,2.83-.388a.921.921,0,0,1,.625.245.869.869,0,0,1,.285.7c-.147,2.543-1.994,4.615-3.1,5.636l-1.394-5.043a.9.9,0,0,1,.117-.743Z" transform="translate(0 -161.788)"/>
      </g>
    </g>
  </g>
</svg>
