<svg xmlns="http://www.w3.org/2000/svg" width="121" height="121" viewBox="0 0 121 121">
  <g id="Grupo_13696" data-name="Grupo 13696" transform="translate(-297 -4965)">
    <circle id="Elipse_638" data-name="Elipse 638" cx="60.5" cy="60.5" r="60.5" transform="translate(297 4965)" fill="#abb7be"/>
    <path id="Trazado_13251" data-name="Trazado 13251" d="M53.993,0A53.993,53.993,0,1,1,0,53.993,53.993,53.993,0,0,1,53.993,0Z" transform="translate(304 4972)" fill="#fff"/>
    <g id="cow_1_" data-name="cow (1)" transform="translate(325.928 5003.328)">
      <path id="Trazado_13234" data-name="Trazado 13234" d="M15.88,95.55l5.5-8.4,2.276-10.133s7.151-9.662,7.386-9.741a16.623,16.623,0,0,1,2.511.63l1.731,2.592,2.828,2.042,1.727.392s5.42-.943,5.656-.943,17.516-3.927,17.516-3.927l8.17-.786L63.4,112.045l-11.311-8.719L43.9,97.956l-12.552,6.707-4,.313L22.56,107.1H17.765l-2.828-2.2-.942-5.735Z" transform="translate(-12.504 -65.286)" fill="#965353"/>
      <path id="Trazado_13235" data-name="Trazado 13235" d="M297.768,74.287l5.361.884,6.245-.236s1.767.471,1.944.53a8.617,8.617,0,0,1,.589,1.885l-.53,2.769-2.3.53-6.539-.943L295.471,78l-4.713-2.946-.295-3.063Z" transform="translate(-285.809 -69.452)" fill="#f5f7fa"/>
      <path id="Trazado_13236" data-name="Trazado 13236" d="M207.542,333.638l2.642-1.178,1.974.53.177,1,.177,3.181.884,3h-6.421v-2.651Z" transform="translate(-177.458 -299.23)" fill="#ffce54"/>
      <path id="Trazado_13237" data-name="Trazado 13237" d="M218.877,103.466l-.477,27.791-4.478-1.771V104.692Z" transform="translate(-183.759 -97.22)" fill="#656d78"/>
      <path id="Trazado_13238" data-name="Trazado 13238" d="M353.246,194.85a1.256,1.256,0,1,1-1.257,1.256A1.256,1.256,0,0,1,353.246,194.85Z" transform="translate(-335.654 -177.836)"/>
      <path id="Trazado_13239" data-name="Trazado 13239" d="M4.262,76.782c1.57-2.357,3.157-4.538,3.8-5.409a18.491,18.491,0,0,1,.048-3.126,32.58,32.58,0,0,1,2.677-7.228A14.814,14.814,0,0,1,4.978,57.4a9.247,9.247,0,0,1-2.217-3.851,6.371,6.371,0,0,1-.254-1.913,1.259,1.259,0,0,1,2.1-.856,18.493,18.493,0,0,0,9.4,4.054c.063.007.129.011.2.018.254-.374.508-.722.755-1.038,1.423-1.828,2.66-2.681,3.9-2.681,1.773,0,3.485,1.186,5.1,3.526a2.981,2.981,0,0,1,.471.081,4.206,4.206,0,0,1,2.59,1.843,3.785,3.785,0,0,1,.265.5c6.011-1.874,20.445-6.053,29.532-6.053a23.344,23.344,0,0,1,2.393.114A1.258,1.258,0,0,1,60.309,52.6L52.768,97.847a1.252,1.252,0,0,1-.775.961,1.262,1.262,0,0,1-1.223-.166L36.807,88.063a8.519,8.519,0,0,0,.732,2.4,1.228,1.228,0,0,1,.095,1.138,1.256,1.256,0,0,1-.894.736,16.578,16.578,0,0,1-2.791.258v.018a1.256,1.256,0,1,1-2.513,0v-.018a16.578,16.578,0,0,1-2.791-.258,1.254,1.254,0,0,1-.894-.736,1.222,1.222,0,0,1,.1-1.138,10.8,10.8,0,0,0,.919-3.713c-4.9,4.557-12.771,4.986-14.66,5.021-1.116.674-3.667,2.1-5.225,2.1a36.687,36.687,0,0,1-5.819-1.039,1.273,1.273,0,0,1-.786-.593C2.184,92.077,0,88.245,0,85.25,0,84.289.484,82.459,4.262,76.782ZM3.115,88.036a1.766,1.766,0,0,0,.25-1.27,1.773,1.773,0,0,0-.808-.889A10.492,10.492,0,0,0,3.115,88.036ZM18.852,53.651c-.2,0-.762.324-1.638,1.377l.372,0c1.32,0,2.4-.083,3.319-.171A3.117,3.117,0,0,0,18.852,53.651ZM23.8,57.178a1.291,1.291,0,0,0-.311-.026c-.359,0-.856.055-1.486.121a39.313,39.313,0,0,1-4.415.269,37.249,37.249,0,0,1-3.844-.206,20.111,20.111,0,0,1-7.6-2.474,7.607,7.607,0,0,0,.744.9c3.658,3.8,11.131,4.6,16.753,4.6a1.407,1.407,0,0,0,1.487-1.3A1.668,1.668,0,0,0,23.8,57.178Zm7.623,1.283V81.911a16.059,16.059,0,0,1,1.77.666,5.433,5.433,0,0,1,.744.111V57.744C33.048,57.992,32.207,58.231,31.42,58.462ZM57.6,53.555q-.387-.011-.8-.011c-4.547,0-11.42,1.171-19.874,3.388-.163.042-.324.085-.485.129V84.635L50.631,95.383ZM32.693,90.1c.819,0,1.481-.026,2-.057a18.134,18.134,0,0,1-.669-4.378c-.016-.366-.526-.595-1.33-.595s-1.314.228-1.33.595a18.127,18.127,0,0,1-.669,4.378C31.212,90.074,31.874,90.1,32.693,90.1Zm-19.677-.611A12.172,12.172,0,0,0,14.875,87.6a1.256,1.256,0,0,1,2.073,1.417,26.751,26.751,0,0,0,3.515-.707c4.078-1.125,6.917-3.052,8.444-5.726V59.213q-.73.224-1.33.411a3.908,3.908,0,0,1-3.942,3.249,43.166,43.166,0,0,1-10.42-1.112,35.151,35.151,0,0,0-2.6,6.722,13.857,13.857,0,0,0-.011,3.041,1.265,1.265,0,0,1-.234.957c-.02.026-2.027,2.714-4.012,5.694a51.352,51.352,0,0,0-3.133,5.2l.2.1A4.392,4.392,0,0,1,5.77,86.034c.42,1.384-.037,2.907-1.35,4.536a29.206,29.206,0,0,0,4.461.784A13.392,13.392,0,0,0,13.016,89.488Z" transform="translate(0 -50.463)"/>
    </g>
  </g>
</svg>
