<svg xmlns="http://www.w3.org/2000/svg" width="121" height="121" viewBox="0 0 121 121">
  <g id="Grupo_13695" data-name="Grupo 13695" transform="translate(-297 -4683)">
    <circle id="Elipse_637" data-name="Elipse 637" cx="60.5" cy="60.5" r="60.5" transform="translate(297 4683)" fill="#abb7be"/>
    <path id="Trazado_13250" data-name="Trazado 13250" d="M53.993,0A53.993,53.993,0,1,1,0,53.993,53.993,53.993,0,0,1,53.993,0Z" transform="translate(304 4690)" fill="#fff"/>
    <g id="Grupo_13644" data-name="Grupo 13644" transform="translate(348.031 4722.553)">
      <path id="Trazado_13240" data-name="Trazado 13240" d="M25.542,48.338a3.561,3.561,0,0,1-1.815-.5L9.511,39.395-4.7,47.835a3.561,3.561,0,0,1-1.815.5,3.6,3.6,0,0,1-2.787-1.347,3.531,3.531,0,0,1-.685-3l3.635-16.128L-18.777,16.955a3.555,3.555,0,0,1-1.036-3.772,3.555,3.555,0,0,1,3.056-2.443L-.3,9.212,6.243-5.972A3.555,3.555,0,0,1,9.511-8.123a3.555,3.555,0,0,1,3.268,2.151L19.318,9.212,35.78,10.739a3.558,3.558,0,0,1,2.02,6.216L25.379,27.866l3.635,16.128a3.532,3.532,0,0,1-.685,3,3.6,3.6,0,0,1-2.787,1.347Z" transform="translate(0 0)"/>
      <path id="Trazado_13241" data-name="Trazado 13241" d="M53.433,30.729,35.708,29.085l-7.041-16.35a1.42,1.42,0,0,0-2.609,0l-7.041,16.35L1.291,30.729a1.42,1.42,0,0,0-.806,2.481L13.859,44.96,9.945,62.326a1.42,1.42,0,0,0,2.111,1.534l15.307-9.089,15.307,9.089a1.42,1.42,0,0,0,2.111-1.534L40.866,44.96,54.24,33.211A1.42,1.42,0,0,0,53.433,30.729Z" transform="translate(-17.851 -17.862)" fill="#ffdc64"/>
      <path id="Trazado_13242" data-name="Trazado 13242" d="M28.667,12.735a1.42,1.42,0,0,0-2.609,0l-7.041,16.35L1.291,30.729a1.42,1.42,0,0,0-.806,2.481L13.859,44.96,9.945,62.326a1.42,1.42,0,0,0,2.111,1.534l3.416-2.029A62.648,62.648,0,0,1,32.148,20.82Z" transform="translate(-17.851 -17.862)" fill="#ffc850"/>
    </g>
  </g>
</svg>
