<?xml version="1.0" encoding="utf-8"?>
<!-- Generator: Adobe Illustrator 24.2.1, SVG Export Plug-In . SVG Version: 6.00 Build 0)  -->
<svg version="1.1" id="Layer_1" xmlns="http://www.w3.org/2000/svg" xmlns:xlink="http://www.w3.org/1999/xlink" x="0px" y="0px"
	 viewBox="0 0 2400 1847.5" style="enable-background:new 0 0 2400 1847.5;" xml:space="preserve">
<style type="text/css">
	.st0{opacity:3.000000e-02;}
	.st1{fill:#FFFFFF;}
	.st2{fill:none;stroke:#FFFFFF;stroke-width:6;stroke-miterlimit:10;}
</style>
<g class="st0">
	<g>
		<rect x="14.4" y="372.5" class="st1" width="307.3" height="12.9"/>
		<rect x="14.4" y="21.1" class="st1" width="307.3" height="24.4"/>
		<polygon class="st1" points="25.6,20.2 321.6,374.9 313.6,383 11.3,34.8 		"/>
		<polygon class="st1" points="324.7,34.8 22.4,383 14.5,374.9 310.5,20.2 		"/>
		<polygon class="st1" points="39.2,54.7 2.3,54.7 0,6 41.5,6 		"/>
		<polygon class="st1" points="334,54.7 297.1,54.7 294.8,6 336.3,6 		"/>
		<polygon class="st1" points="39.2,389.7 2.3,389.7 0,352.5 41.5,352.5 		"/>
		<polygon class="st1" points="334,389.7 297.1,389.7 294.8,352.5 336.3,352.5 		"/>
		<rect x="309.4" y="30.3" class="st1" width="12.2" height="330.2"/>
		<rect x="163.5" y="30.3" class="st1" width="12.2" height="346.4"/>
		<rect x="14.7" y="30.3" class="st1" width="12.2" height="330.2"/>
	</g>
	<g>
		<rect x="309.2" y="372.5" class="st1" width="307.3" height="12.9"/>
		<rect x="309.2" y="21.1" class="st1" width="307.3" height="24.4"/>
		<polygon class="st1" points="320.4,20.2 616.4,374.9 608.4,383 306.1,34.8 		"/>
		<polygon class="st1" points="619.5,34.8 317.2,383 309.3,374.9 605.3,20.2 		"/>
		<polygon class="st1" points="334,54.7 297.1,54.7 294.8,6 336.3,6 		"/>
		<polygon class="st1" points="628.8,54.7 591.9,54.7 589.6,6 631.1,6 		"/>
		<polygon class="st1" points="334,389.7 297.1,389.7 294.8,352.5 336.3,352.5 		"/>
		<polygon class="st1" points="628.8,389.7 591.9,389.7 589.6,352.5 631.1,352.5 		"/>
		<rect x="604.2" y="30.3" class="st1" width="12.2" height="330.2"/>
		<rect x="458.3" y="30.3" class="st1" width="12.2" height="346.4"/>
		<rect x="309.5" y="30.3" class="st1" width="12.2" height="330.2"/>
	</g>
	<g>
		<rect x="604" y="372.5" class="st1" width="307.3" height="12.9"/>
		<rect x="604" y="21.1" class="st1" width="307.3" height="24.4"/>
		<polygon class="st1" points="615.2,20.2 911.2,374.9 903.2,383 600.9,34.8 		"/>
		<polygon class="st1" points="914.4,34.8 612,383 604.1,374.9 900.1,20.2 		"/>
		<polygon class="st1" points="628.8,54.7 591.9,54.7 589.6,6 631.1,6 		"/>
		<polygon class="st1" points="923.6,54.7 886.7,54.7 884.4,6 926,6 		"/>
		<polygon class="st1" points="628.8,389.7 591.9,389.7 589.6,352.5 631.1,352.5 		"/>
		<polygon class="st1" points="923.6,389.7 886.7,389.7 884.4,352.5 926,352.5 		"/>
		<rect x="899" y="30.3" class="st1" width="12.2" height="330.2"/>
		<rect x="753.1" y="30.3" class="st1" width="12.2" height="346.4"/>
		<rect x="604.3" y="30.3" class="st1" width="12.2" height="330.2"/>
	</g>
	<g>
		<rect x="898.8" y="372.5" class="st1" width="307.3" height="12.9"/>
		<rect x="898.8" y="21.1" class="st1" width="307.3" height="24.4"/>
		<polygon class="st1" points="910,20.2 1206,374.9 1198.1,383 895.7,34.8 		"/>
		<polygon class="st1" points="1209.2,34.8 906.8,383 898.9,374.9 1194.9,20.2 		"/>
		<polygon class="st1" points="923.6,54.7 886.7,54.7 884.4,6 926,6 		"/>
		<polygon class="st1" points="1218.5,54.7 1181.5,54.7 1179.2,6 1220.8,6 		"/>
		<polygon class="st1" points="923.6,389.7 886.7,389.7 884.4,352.5 926,352.5 		"/>
		<polygon class="st1" points="1218.5,389.7 1181.5,389.7 1179.2,352.5 1220.8,352.5 		"/>
		<rect x="1193.8" y="30.3" class="st1" width="12.2" height="330.2"/>
		<rect x="1047.9" y="30.3" class="st1" width="12.2" height="346.4"/>
		<rect x="899.1" y="30.3" class="st1" width="12.2" height="330.2"/>
	</g>
	<g>
		<rect x="1193.6" y="372.5" class="st1" width="307.3" height="12.9"/>
		<rect x="1193.6" y="21.1" class="st1" width="307.3" height="24.4"/>
		<polygon class="st1" points="1204.8,20.2 1500.8,374.9 1492.9,383 1190.5,34.8 		"/>
		<polygon class="st1" points="1504,34.8 1201.6,383 1193.7,374.9 1489.7,20.2 		"/>
		<polygon class="st1" points="1218.5,54.7 1181.5,54.7 1179.2,6 1220.8,6 		"/>
		<polygon class="st1" points="1513.3,54.7 1476.4,54.7 1474,6 1515.6,6 		"/>
		<polygon class="st1" points="1218.5,389.7 1181.5,389.7 1179.2,352.5 1220.8,352.5 		"/>
		<polygon class="st1" points="1513.3,389.7 1476.4,389.7 1474,352.5 1515.6,352.5 		"/>
		<rect x="1488.6" y="30.3" class="st1" width="12.2" height="330.2"/>
		<rect x="1342.7" y="30.3" class="st1" width="12.2" height="346.4"/>
		<rect x="1193.9" y="30.3" class="st1" width="12.2" height="330.2"/>
	</g>
	<g>
		<rect x="1488.4" y="372.5" class="st1" width="307.3" height="12.9"/>
		<rect x="1488.4" y="21.1" class="st1" width="307.3" height="24.4"/>
		<polygon class="st1" points="1499.6,20.2 1795.6,374.9 1787.7,383 1485.3,34.8 		"/>
		<polygon class="st1" points="1798.8,34.8 1496.4,383 1488.5,374.9 1784.5,20.2 		"/>
		<polygon class="st1" points="1513.3,54.7 1476.4,54.7 1474,6 1515.6,6 		"/>
		<polygon class="st1" points="1808.1,54.7 1771.2,54.7 1768.9,6 1810.4,6 		"/>
		<polygon class="st1" points="1513.3,389.7 1476.4,389.7 1474,352.5 1515.6,352.5 		"/>
		<polygon class="st1" points="1808.1,389.7 1771.2,389.7 1768.9,352.5 1810.4,352.5 		"/>
		<rect x="1783.4" y="30.3" class="st1" width="12.2" height="330.2"/>
		<rect x="1637.5" y="30.3" class="st1" width="12.2" height="346.4"/>
		<rect x="1488.7" y="30.3" class="st1" width="12.2" height="330.2"/>
	</g>
	<g>
		<rect x="1783.2" y="372.5" class="st1" width="307.3" height="12.9"/>
		<rect x="1783.2" y="21.1" class="st1" width="307.3" height="24.4"/>
		<polygon class="st1" points="1794.4,20.2 2090.4,374.9 2082.5,383 1780.1,34.8 		"/>
		<polygon class="st1" points="2093.6,34.8 1791.2,383 1783.3,374.9 2079.3,20.2 		"/>
		<polygon class="st1" points="1808.1,54.7 1771.2,54.7 1768.9,6 1810.4,6 		"/>
		<polygon class="st1" points="2102.9,54.7 2066,54.7 2063.7,6 2105.2,6 		"/>
		<polygon class="st1" points="1808.1,389.7 1771.2,389.7 1768.9,352.5 1810.4,352.5 		"/>
		<polygon class="st1" points="2102.9,389.7 2066,389.7 2063.7,352.5 2105.2,352.5 		"/>
		<rect x="2078.2" y="30.3" class="st1" width="12.2" height="330.2"/>
		<rect x="1932.4" y="30.3" class="st1" width="12.2" height="346.4"/>
		<rect x="1783.5" y="30.3" class="st1" width="12.2" height="330.2"/>
	</g>
	<g>
		<rect x="2078" y="372.5" class="st1" width="307.3" height="12.9"/>
		<rect x="2078" y="21.1" class="st1" width="307.3" height="24.4"/>
		<polygon class="st1" points="2089.2,20.2 2385.2,374.9 2377.3,383 2074.9,34.8 		"/>
		<polygon class="st1" points="2388.4,34.8 2086,383 2078.1,374.9 2374.1,20.2 		"/>
		<polygon class="st1" points="2102.9,54.7 2066,54.7 2063.7,6 2105.2,6 		"/>
		<polygon class="st1" points="2397.7,54.7 2360.8,54.7 2358.5,6 2400,6 		"/>
		<polygon class="st1" points="2102.9,389.7 2066,389.7 2063.7,352.5 2105.2,352.5 		"/>
		<polygon class="st1" points="2397.7,389.7 2360.8,389.7 2358.5,352.5 2400,352.5 		"/>
		<rect x="2373" y="30.3" class="st1" width="12.2" height="330.2"/>
		<rect x="2227.2" y="30.3" class="st1" width="12.2" height="346.4"/>
		<rect x="2078.3" y="30.3" class="st1" width="12.2" height="330.2"/>
	</g>
	<g>
		<polygon class="st1" points="2144.1,554.9 1748.8,554.9 1768.9,522.9 2124,522.9 		"/>
		<polygon class="st1" points="1837.1,529.9 1789,529.9 1794.4,505.8 1831.7,505.8 		"/>
		<rect x="1810.8" y="15.2" class="st1" width="4.6" height="502.6"/>
		<polygon class="st1" points="2099.2,529.9 2051.2,529.9 2056.5,505.8 2093.9,505.8 		"/>
		<rect x="2072.9" y="15.2" class="st1" width="4.6" height="502.6"/>
	</g>
	<g>
		<polygon class="st1" points="1394.2,554.9 999,554.9 1019.1,522.9 1374.2,522.9 		"/>
		<polygon class="st1" points="1087.2,529.9 1039.2,529.9 1044.5,505.8 1081.9,505.8 		"/>
		<rect x="1060.9" y="15.2" class="st1" width="4.6" height="502.6"/>
		<polygon class="st1" points="1349.4,529.9 1301.4,529.9 1306.7,505.8 1344.1,505.8 		"/>
		<rect x="1323.1" y="15.2" class="st1" width="4.6" height="502.6"/>
	</g>
	<g>
		<polygon class="st1" points="644.4,554.9 249.1,554.9 269.2,522.9 624.3,522.9 		"/>
		<polygon class="st1" points="337.3,529.9 289.3,529.9 294.6,505.8 332,505.8 		"/>
		<rect x="311" y="15.2" class="st1" width="4.6" height="502.6"/>
		<polygon class="st1" points="599.5,529.9 551.5,529.9 556.8,505.8 594.2,505.8 		"/>
		<rect x="573.2" y="15.2" class="st1" width="4.6" height="502.6"/>
	</g>
	<g>
		<g>
			
				<rect x="1227.6" y="1487.4" transform="matrix(0.6388 -0.7694 0.7694 0.6388 -823.4889 1540.7764)" class="st1" width="3.1" height="320"/>
		</g>
		<g>
			<polygon class="st1" points="1100.9,1751 1098.9,1748.5 1355.9,1545.2 1110.3,1321.3 1370.8,1091.6 1372.9,1093.9 1115,1321.3 
				1360.8,1545.4 1359.3,1546.5 			"/>
		</g>
		<g>
			<polygon class="st1" points="928.9,1847.5 908.4,1092.9 908.3,1088.5 912.7,1088.5 1086,1088 1259.3,1088.5 1263.6,1088.6 
				1263.5,1092.9 1243.1,1847.5 1238,1847.4 1255,1092.7 1259.3,1097 1086,1097.5 912.7,1097.1 917,1092.7 934,1847.4 			"/>
		</g>
		<g>
			<polygon class="st1" points="1259.3,1088 1371.8,1088 1376.7,1088 1376.5,1092.9 1352,1847.5 1346.7,1847.3 1367.1,1092.6 
				1371.8,1097.5 1259.3,1097.5 			"/>
		</g>
		<g>
			<polygon class="st1" points="1006.9,1088 1119.5,1088 1124.4,1088 1124.2,1092.9 1099.7,1847.5 1094.3,1847.3 1114.8,1092.6 
				1119.5,1097.5 1006.9,1097.5 			"/>
		</g>
		<g>
			<rect x="912.7" y="1743.9" class="st1" width="451.1" height="11.8"/>
		</g>
		<g>
			<rect x="909" y="1539.4" class="st1" width="458.6" height="11.8"/>
		</g>
		<g>
			<rect x="908.3" y="1315.4" class="st1" width="466.2" height="11.8"/>
		</g>
		<g>
			<polygon class="st1" points="1107,1546.5 1105,1544.1 1365.2,1321.2 1122.4,1094.4 1124.5,1092.1 1369.9,1321.3 			"/>
		</g>
	</g>
	<g>
		<g>
			
				<rect x="2090.2" y="1487.4" transform="matrix(0.6388 -0.7694 0.7694 0.6388 -511.912 2204.4536)" class="st1" width="3.1" height="320"/>
		</g>
		<g>
			<polygon class="st1" points="1963.6,1751 1961.6,1748.5 2218.6,1545.2 1973,1321.3 2233.4,1091.6 2235.5,1093.9 1977.7,1321.3 
				2223.4,1545.4 2222,1546.5 			"/>
		</g>
		<g>
			<polygon class="st1" points="1791.5,1847.5 1771.1,1092.9 1770.9,1088.5 1775.4,1088.5 1948.6,1088 2121.9,1088.5 2126.2,1088.6 
				2126.1,1092.9 2105.7,1847.5 2100.6,1847.4 2117.7,1092.7 2121.9,1097 1948.6,1097.5 1775.4,1097.1 1779.7,1092.7 1796.7,1847.4 
							"/>
		</g>
		<g>
			<polygon class="st1" points="2121.9,1088 2234.5,1088 2239.4,1088 2239.2,1092.9 2214.7,1847.5 2209.3,1847.3 2229.8,1092.6 
				2234.5,1097.5 2121.9,1097.5 			"/>
		</g>
		<g>
			<polygon class="st1" points="1869.6,1088 1982.2,1088 1987,1088 1986.9,1092.9 1962.4,1847.5 1957,1847.3 1977.4,1092.6 
				1982.2,1097.5 1869.6,1097.5 			"/>
		</g>
		<g>
			<rect x="1775.4" y="1743.9" class="st1" width="451.1" height="11.8"/>
		</g>
		<g>
			<rect x="1771.6" y="1539.4" class="st1" width="458.6" height="11.8"/>
		</g>
		<g>
			<rect x="1771" y="1315.4" class="st1" width="466.2" height="11.8"/>
		</g>
		<g>
			<polygon class="st1" points="1969.7,1546.5 1967.7,1544.1 2227.8,1321.2 1985.1,1094.4 1987.2,1092.1 2232.6,1321.3 			"/>
		</g>
	</g>
	<g>
		<polygon class="st1" points="1158.2,1746.8 1013.7,1746.8 1010.3,1634.6 1161.7,1634.6 		"/>
	</g>
	<g>
		<polygon class="st1" points="1101.1,1545.3 956.6,1545.3 953.2,1433.1 1104.6,1433.1 		"/>
	</g>
	<g>
		<polygon class="st1" points="1289.4,1545.3 1144.9,1545.3 1141.4,1433.1 1292.8,1433.1 		"/>
	</g>
	<g>
		<polygon class="st1" points="2050.4,1545.3 1905.9,1545.3 1902.5,1433.1 2053.9,1433.1 		"/>
	</g>
	<g>
		<polygon class="st1" points="2187.1,1321.3 2042.6,1321.3 2039.1,1209.1 2190.5,1209.1 		"/>
	</g>
	<g>
		<polygon class="st1" points="2088.5,1321.3 1944,1321.3 1940.6,1209.1 2092,1209.1 		"/>
	</g>
	<g>
		<polygon class="st1" points="1096.5,1321.3 952,1321.3 948.5,1209.1 1099.9,1209.1 		"/>
	</g>
	<g>
		<polygon class="st1" points="1191.7,1321.3 1047.3,1321.3 1043.8,1209.1 1195.2,1209.1 		"/>
	</g>
	<g>
		<g>
			<g>
				
					<rect x="440.9" y="1487.5" transform="matrix(0.6388 -0.7694 0.7694 0.6388 -1107.746 935.4905)" class="st1" width="3.1" height="320"/>
			</g>
			<g>
				<polygon class="st1" points="314.2,1751 312.2,1748.5 569.2,1545.2 323.6,1321.3 324.9,1320.1 584.1,1091.6 586.1,1093.9 
					328.3,1321.3 574,1545.4 				"/>
			</g>
			<g>
				<polygon class="st1" points="142.2,1847.5 121.7,1092.9 121.6,1088.5 126,1088.5 299.3,1088 472.5,1088.5 476.9,1088.6 
					476.7,1092.9 456.3,1847.5 451.2,1847.4 468.3,1092.7 472.5,1097 299.3,1097.5 126,1097.1 130.3,1092.7 147.3,1847.4 				"/>
			</g>
			<g>
				<polygon class="st1" points="472.5,1088 585.1,1088 590,1088 589.8,1092.9 565.3,1847.5 559.9,1847.3 580.4,1092.6 
					585.1,1097.5 472.5,1097.5 				"/>
			</g>
			<g>
				<polygon class="st1" points="220.2,1088 332.8,1088 337.6,1088 337.5,1092.9 313,1847.5 307.6,1847.3 328.1,1092.6 
					332.8,1097.5 220.2,1097.5 				"/>
			</g>
			<g>
				<rect x="126" y="1743.9" class="st1" width="451.1" height="11.8"/>
			</g>
			<g>
				<rect x="122.2" y="1539.4" class="st1" width="458.6" height="11.8"/>
			</g>
			<g>
				<rect x="121.6" y="1315.4" class="st1" width="466.2" height="11.8"/>
			</g>
			<g>
				<polygon class="st1" points="320.3,1546.5 318.3,1544.1 578.5,1321.2 335.7,1094.4 337.8,1092.1 583.2,1321.3 581.8,1322.5 				
					"/>
			</g>
		</g>
		<g>
			<polygon class="st1" points="415.9,1545.3 271.4,1545.3 267.9,1433.1 419.4,1433.1 			"/>
		</g>
		<g>
			<polygon class="st1" points="544.8,1746.8 400.3,1746.8 396.8,1634.6 548.2,1634.6 			"/>
		</g>
		<g>
			<polygon class="st1" points="379,1746.8 234.5,1746.8 231,1634.6 382.4,1634.6 			"/>
		</g>
	</g>
	<g>
		<rect x="76.5" y="608.2" class="st2" width="322.7" height="369.4"/>
		<rect x="458.4" y="608.2" class="st2" width="322.7" height="369.4"/>
	</g>
	<g>
		<rect x="844.1" y="608.2" class="st2" width="322.7" height="369.4"/>
		<rect x="1225.9" y="608.2" class="st2" width="322.7" height="369.4"/>
	</g>
	<g>
		<rect x="1619.7" y="608.2" class="st2" width="322.7" height="369.4"/>
		<rect x="2001.5" y="608.2" class="st2" width="322.7" height="369.4"/>
	</g>
</g>
</svg>
