<svg xmlns="http://www.w3.org/2000/svg" xmlns:xlink="http://www.w3.org/1999/xlink" width="494.866" height="298.088" viewBox="0 0 494.866 298.088">
  <defs>
    <linearGradient id="linear-gradient" x1="0.5" y1="0.103" x2="0.5" y2="1.202" gradientUnits="objectBoundingBox">
      <stop offset="0" stop-color="#9ec8ff"/>
      <stop offset="1" stop-color="#e7f3fe"/>
    </linearGradient>
    <clipPath id="clip-path">
      <path id="Trazado_13348" data-name="Trazado 13348" d="M2441.406-725.214a19.782,19.782,0,0,0-19.782,19.782,19.782,19.782,0,0,0,19.782,19.782,19.782,19.782,0,0,0,19.782-19.782A19.782,19.782,0,0,0,2441.406-725.214Zm0,30.262a10.48,10.48,0,0,1-10.48-10.48,10.48,10.48,0,0,1,10.48-10.48,10.479,10.479,0,0,1,10.479,10.48A10.479,10.479,0,0,1,2441.406-694.952Z" transform="translate(-2421.624 725.214)" fill="none"/>
    </clipPath>
  </defs>
  <g id="Grupo_13692" data-name="Grupo 13692" transform="translate(-2301.757 1414.89)">
    <path id="Trazado_13253" data-name="Trazado 13253" d="M3562.249-1313.586c20.151-20.95-78.639-93.858-160.221-100.5-75.109-6.12-174.34,23.506-73.594,67.306C3424.428-1305.051,3551.72-1302.639,3562.249-1313.586Z" transform="translate(-847.097)" fill="#e7f3fe"/>
    <path id="Trazado_13254" data-name="Trazado 13254" d="M2320.848-947.788c47.05-59.524,145.854,3.347,230.4,18.619s222.052-8.993,221.708,57.991c-.367,71.415-30.862,111.594-198.125,130.783S2330.982-780.344,2309.112-843.3C2292.088-892.311,2308.273-931.88,2320.848-947.788Z" transform="translate(0 -380.497)" fill="#e7f3fe"/>
    <g id="Grupo_13646" data-name="Grupo 13646" transform="translate(2605.734 -1252.257)">
      <path id="Trazado_13255" data-name="Trazado 13255" d="M4525.1-245.546c-6.906,14.018-15.563,52.322-17.924,54.421s-16,10.232-18.366,14.167-1.312,2.624-.262,2.886,60.343.525,60.343.525-6.821-40.666-7.608-40.928S4525.1-245.546,4525.1-245.546Z" transform="translate(-4487.383 245.546)" fill="#a2dff2"/>
      <path id="Trazado_13256" data-name="Trazado 13256" d="M4687.974-173.736c10.89.076,22.381.136,28.708.167l-8.662-51.8c-4.62-8.956-10.228-20.179-10.228-20.179-.871,1.767-1.769,3.921-2.679,6.339-.9,38.9,4.705,49.808.5,56.74C4692.326-177.057,4689.328-174.638,4687.974-173.736Z" transform="translate(-4660.076 245.546)" fill="#96cfe0"/>
    </g>
    <g id="Grupo_13647" data-name="Grupo 13647" transform="translate(2572.832 -1306.697)">
      <path id="Trazado_13257" data-name="Trazado 13257" d="M4794.389-367.193c9.848,9.091,31.77,17.711,31.77,17.711s3.33,30.772,1.058,48.2-1.01,20.959-1.01,20.959l-47.337.4s-3.93-8.821-15.035-35c-7.071-16.666-5.809-35.353-5.809-35.353l27.524-12.373Z" transform="translate(-4687.407 404.714)" fill="#a2dff2"/>
      <path id="Trazado_13258" data-name="Trazado 13258" d="M4889.963-165.279h45.2s-1.263-3.535,1.01-20.959c1.872-14.347-.056-37.744-.8-45.56l-4.111-1.762c-10.32,2.974-16.267,18.366-18.016,33.409-1.17,10.065-17.846,19.973-28.753,25.429A89.282,89.282,0,0,0,4889.963-165.279Z" transform="translate(-4796.365 289.666)" fill="#96cfe0"/>
      <path id="Trazado_13259" data-name="Trazado 13259" d="M4965.3-317.471s.424,13,2.64,12.856,15.1-16.477,15.1-16.477l-2.19-1.047Z" transform="translate(-4865.929 365.926)" fill="#96cfe0"/>
      <path id="Trazado_13260" data-name="Trazado 13260" d="M4895.183-298.606s-2.8,11.954-4.19,11.676-3.266-12.432-3.266-12.432Z" transform="translate(-4799.145 346.316)" fill="#96cfe0"/>
      <path id="Trazado_13261" data-name="Trazado 13261" d="M4904.166-304.639l3.853.417,1.483,4.59s-3.389,3.966-3.458,5.564.746,7.579.791,13-1.948,27.015-1.044,40.242l.9,13.227-7.744.3s-.417-14.55,0-30.127,4.85-36.647,4.85-36.647l-1.75-5.356Z" transform="translate(-4808.648 350.86)" fill="#f37168"/>
      <path id="Trazado_13262" data-name="Trazado 13262" d="M4830.664-594.293c-5.449,12.135,1.091,23.377.893,22.9s8.247-20.489,8.247-20.489Z" transform="translate(-4748.147 600.229)" fill="#2e5b9a"/>
      <path id="Trazado_13263" data-name="Trazado 13263" d="M4920.7-529.772l6.91,25.258a2.285,2.285,0,0,1-.437,2.046c-1.621,2-3.929,6.1-8.584,7.421a11.541,11.541,0,0,1-2.923.328,1.972,1.972,0,0,1-1.947-1.6l-4.63-23.956Z" transform="translate(-4817.536 544.681)" fill="#f09959"/>
      <path id="Trazado_13264" data-name="Trazado 13264" d="M4919.38-514.593l-2.526,1.035-7.765,6.354,2.98,15.185,1.188,6.054C4920.326-490.372,4922.918-497.562,4919.38-514.593Z" transform="translate(-4817.536 531.613)" fill="#e38540"/>
      <path id="Trazado_13265" data-name="Trazado 13265" d="M4837.728-564.1c.006,8.448-5.087,15.1-11.375,14.865s-10.146-4.995-11.4-15.729c-.98-8.421,1.451-18.221,7.739-17.982S4837.723-572.546,4837.728-564.1Z" transform="translate(-4736.314 590.461)" fill="#f09959"/>
      <path id="Trazado_13266" data-name="Trazado 13266" d="M4957.507-241.157c9.145,2.065,10.845,20.64,13.818,40.231.342,2.255,2.1,21.34,2.1,21.34a5.842,5.842,0,0,1-3.324,5.247c-2.989,1.494-4.2,2.624-21.515,2.8-16.631.168-38.073-.525-38.073-.525s-.19-6.188,1.516-9.212c2.565-4.548,28.861-11.078,31.31-11.428.35-4.9-2.415-22.618,1.4-34.633,2.624-8.265,5.444-12.594,8.979-13.726A7.1,7.1,0,0,1,4957.507-241.157Z" transform="translate(-4818.756 296.389)" fill="#a2dff2"/>
      <path id="Trazado_13267" data-name="Trazado 13267" d="M4978.163-144.663c8.2.123,19.451.241,28.67.148,17.316-.175,18.525-1.3,21.515-2.8a6.149,6.149,0,0,0,3.673-4.723s-1.768-20.308-2.1-22.564c-1.924-13.119-4-28.13-8.841-35.377a98.944,98.944,0,0,1,5.361,29.383,29.29,29.29,0,0,1-.893,8.092c-.788,2.58-2.8,4.2-5.947,3.323-6.3-1.749-14.168,1.924-14.168,1.924s5.947-2.1,11.545-.175,17.142,14.693,4.547,19.416C5017.672-146.568,4994.589-145.39,4978.163-144.663Z" transform="translate(-4877.003 269.363)" fill="#96cfe0"/>
      <path id="Trazado_13268" data-name="Trazado 13268" d="M4917.381,170.342a8.671,8.671,0,0,1,7.113-3.965c4.781,0,4.431,7.813,3.731,10.378a3.884,3.884,0,0,1-3.5,2.682l-9.629-.244Z" transform="translate(-4822.709 -54.647)" fill="#96cfe0"/>
      <path id="Trazado_13269" data-name="Trazado 13269" d="M4250.813,236.221h80.343a4.027,4.027,0,0,0-4.026-4.027h-76.317Z" transform="translate(-4250.813 -111.31)" fill="#75a1de"/>
      <path id="Trazado_13270" data-name="Trazado 13270" d="M4756.633,159.137c-9.685-4.455-12.422-3.322-14.624-4.174-5.438-2.1-6.952-.827-11.4,8.741-.885,1.907,1.216,2.21,3.307,2.389s5-3.67,5.848-4.065a11.409,11.409,0,0,1,3.081-.439s-.7-.06-1.921,1.943-2.572,2.706-.945,2.845,2.087-2.514,5.058-1.675,2.363,3.667,9.939,3.423c7.186-.232,12.555.487,12.819-4.055.251-4.309.91-6.418-3.1-7.521C4761.607,155.7,4756.633,159.137,4756.633,159.137Z" transform="translate(-4663.703 -44.073)" fill="#f09959"/>
      <path id="Trazado_13271" data-name="Trazado 13271" d="M4919.762,175.394c6.745-.185,4.074,7.97,3.318,8.607s3.7.562,3.7.562a8.1,8.1,0,0,0,.944-7.144,6.538,6.538,0,0,0-4.886-4.455l-3.1,1.374Z" transform="translate(-4826.701 -60.319)" fill="#a86b48"/>
      <path id="Trazado_13272" data-name="Trazado 13272" d="M4921.386,168.141c.054,1.037-1.595,1.966-3.683,2.074s-3.824-.645-3.878-1.682,1.6-1.966,3.683-2.074S4921.332,167.1,4921.386,168.141Z" transform="translate(-4821.612 -54.709)" fill="#2e5b9a"/>
      <path id="Trazado_13273" data-name="Trazado 13273" d="M4922.077,166.108c.048.927-1.425,1.757-3.291,1.853s-3.417-.576-3.464-1.5,1.425-1.757,3.291-1.853S4922.029,165.181,4922.077,166.108Z" transform="translate(-4822.901 -53.114)" fill="#3e6bab"/>
      <path id="Trazado_13274" data-name="Trazado 13274" d="M4925.092,166.8c.035.667-1.026,1.265-2.368,1.334s-2.459-.415-2.494-1.082,1.026-1.264,2.369-1.334S4925.058,166.135,4925.092,166.8Z" transform="translate(-4827.126 -54.076)" fill="#f0ceb4"/>
      <path id="Trazado_13275" data-name="Trazado 13275" d="M4504.851,184.5c4.979-2.766,11.065-1.844,13.279.922s2.582,4.611-2.4,4.611-14.938.369-16.6.184S4504.851,184.5,4504.851,184.5Z" transform="translate(-4464.388 -68.808)" fill="#f09959"/>
      <path id="Trazado_13276" data-name="Trazado 13276" d="M4588.278,186.06c5.348-1.291,9,1.821,13.463,4.8,3.873,2.582,4.651,5.092.369,2.951-6.271-3.135-9.959-3.5-9.959-3.5Z" transform="translate(-4541.343 -71.335)" fill="#f09959"/>
      <path id="Trazado_13277" data-name="Trazado 13277" d="M4458.344,200.867c-2.7,0-5.059-.861-6.965-.7s-7.944,6.355-6.991,6.832a2.23,2.23,0,0,0,.223.1,3.253,3.253,0,0,0,3.859-1.354c.854-1.371,2.244-2.967,3.862-2.4a17.178,17.178,0,0,0,5.536.861Z" transform="translate(-4417.378 -83.718)" fill="#f09959"/>
      <path id="Trazado_13278" data-name="Trazado 13278" d="M4542.863,178.642c-2.766-1.107,1.66-10.328,3.136-10.328s7.008,4.427,7.008,4.427-1.3.734-5.717-.738c-1.106-.369-2.029,5.9-3.32,6.639S4542.863,178.642,4542.863,178.642Z" transform="translate(-4501.478 -56.315)" fill="#f7a96f"/>
      <path id="Trazado_13279" data-name="Trazado 13279" d="M4891.106-344.3l1.3,6.912-3.789,8.2-4.117-8.693Z" transform="translate(-4796.365 385.005)" fill="#a2dff2"/>
      <path id="Trazado_13280" data-name="Trazado 13280" d="M4779.418-606.694c1.592,10.032,5.306,11.092,7.936,12.008s12.468-3.217,13.516-5.965c2.683-7.029-1.646-12.322-.769-12.392s2.12,2.244,4.955,5.021c.264.259,2.087,1.962,2.042,1.292-.61-9.134,3.533-12.771.754-21.61-2.049-6.516-6.184-5.205-6.184-5.205s-3.761-5.074-12.143-2.871c-5.616,1.476-10.282,4.633-15.873,7.228s9.681,13.533,16.4,7.265,4.934,5.134,6.289,5.742.6,0,2.161,5.381-4.734,10.24-6.642,11.077c-6.1,2.677-7.359,1.823-9.2-.32C4781.064-601.9,4779.418-606.694,4779.418-606.694Z" transform="translate(-4699.898 636.971)" fill="#2e5b9a"/>
      <path id="Trazado_13281" data-name="Trazado 13281" d="M4972.864-509.089c-.266,2.652-1.753,4.608-3.321,4.369s-1.99-2.276-2.357-5.234c-.331-2.667,1.754-4.608,3.321-4.369S4973.13-511.741,4972.864-509.089Z" transform="translate(-4867.522 531.398)" fill="#f09959"/>
      <path id="Trazado_13282" data-name="Trazado 13282" d="M4972.677-363.155l6.871,6.4s-13.219,12.448-14.363,12.309-3.085-10.57-3.085-10.57Z" transform="translate(-4863.173 401.237)" fill="#a2dff2"/>
      <path id="Trazado_13283" data-name="Trazado 13283" d="M4924.706-305.761c-1.268.6-.86,2.4-1.4,3.033s-.858.8-1.292-.078-.363-2.856-.7-2.956-2.886,7.874-2.886,7.874,1.874-5.1,2.3-4.543.087,1.074,1.639,1.167a11.442,11.442,0,0,0,3.524-.561Z" transform="translate(-4825.579 351.826)" fill="#a2dff2"/>
    </g>
    <g id="Grupo_13648" data-name="Grupo 13648" transform="translate(2550.174 -1223.799)">
      <path id="Trazado_13284" data-name="Trazado 13284" d="M4136.287,1.083H4179.2l-18.224-40.092a3.277,3.277,0,0,0-2.983-1.921h-38.816a1.279,1.279,0,0,0-1.165,1.809Z" transform="translate(-4113.724 40.93)" fill="#a8ceff"/>
      <path id="Trazado_13285" data-name="Trazado 13285" d="M4089.177-40.93h39.606a3.278,3.278,0,0,1,2.983,1.921L4149.99,1.083h-43.7l-18.275-40.2A1.279,1.279,0,0,1,4089.177-40.93Z" transform="translate(-4087.896 40.93)" fill="#75a1de"/>
      <path id="Trazado_13286" data-name="Trazado 13286" d="M4238.587,82.922c1.5,3.113,3.939,5.048,5.444,4.322s1.507-3.838,0-6.951-3.94-5.048-5.444-4.322S4237.085,79.809,4238.587,82.922Z" transform="translate(-4216.66 -59.581)" fill="#6695d6"/>
    </g>
    <g id="Grupo_13651" data-name="Grupo 13651" transform="translate(2377.603 -1303.117)">
      <g id="Grupo_13649" data-name="Grupo 13649" transform="translate(37.258 2.204)">
        <path id="Trazado_13287" data-name="Trazado 13287" d="M3118.906-547.872c-.667,0-1.324-.033-1.968-.066-.533-.027-1.084-.055-1.615-.062a.339.339,0,0,1-.334-.344.339.339,0,0,1,.339-.334c.548.008,1.105.036,1.645.063,4.029.2,8.2.415,12.256-7.391a36.177,36.177,0,0,0,3.286-17.394,29.24,29.24,0,0,0-10.357-21.383.339.339,0,0,1-.042-.477.338.338,0,0,1,.477-.043,29.9,29.9,0,0,1,10.6,21.867,36.9,36.9,0,0,1-3.362,17.743C3126.248-548.8,3122.435-547.872,3118.906-547.872Z" transform="translate(-3114.99 595.381)" fill="#303c60"/>
      </g>
      <g id="Grupo_13650" data-name="Grupo 13650" transform="translate(39.114 6.535)">
        <path id="Trazado_13288" data-name="Trazado 13288" d="M3129.124-522.663c-.158,0-.315,0-.473-.012a.339.339,0,0,1-.322-.355.338.338,0,0,1,.355-.322c.146.007.292.011.438.011,4.2,0,8.089-2.977,10.711-8.239,4.313-8.651,4.731-22.843-2.988-32.106a.339.339,0,0,1,.043-.477.339.339,0,0,1,.477.043c7.9,9.484,7.483,24,3.074,32.842C3137.7-525.776,3133.593-522.663,3129.124-522.663Z" transform="translate(-3128.328 564.241)" fill="#303c60"/>
      </g>
      <path id="Trazado_13289" data-name="Trazado 13289" d="M2952.9-606.338c12.168-9.444,23.594-4.438,27.688,8.344,3.824,11.939-1.077,37.595-19.228,33.124-18.778-4.625-20.342-10.374-20.2-18.729A29.649,29.649,0,0,1,2952.9-606.338Z" transform="translate(-2928.068 611.231)" fill="#303c60"/>
      <path id="Trazado_13290" data-name="Trazado 13290" d="M2865.6-303.8l-17.392,6.49s4.868,35.326,5.285,48.817-6.4,25.195-6.4,25.195h45.479s6.259-36.738,5.007-49.673-9.875-26.336-10.292-26.659-10.848-2.687-10.848-2.687Z" transform="translate(-2847.098 346.559)" fill="#a2dff2"/>
      <path id="Trazado_13291" data-name="Trazado 13291" d="M3145,8.861s1.751,16.411,2.475,17.246S3174.9,40.013,3174.9,40.013l-38.8,2.645Z" transform="translate(-3095.904 77.382)" fill="#d54a41"/>
      <path id="Trazado_13292" data-name="Trazado 13292" d="M3136.1-273.816c4.312.094,5.481,7.143,6.5,12.381S3136.1-273.816,3136.1-273.816Z" transform="translate(-3095.904 320.744)" fill="#d54a41"/>
      <path id="Trazado_13293" data-name="Trazado 13293" d="M2886.808-271.9c-2.365-8.484-15.068-32.109-15.068-32.109l-16.642,6.518s3.815,27.686,4.979,43.4l6.322,30.613h20.409S2889.173-263.413,2886.808-271.9Z" transform="translate(-2853.985 346.735)" fill="#f37168"/>
      <path id="Trazado_13294" data-name="Trazado 13294" d="M2914.221,141.168l18.759-4.306-1.531,15.994Z" transform="translate(-2904.885 -32.816)" fill="#d54a41"/>
      <path id="Trazado_13295" data-name="Trazado 13295" d="M2865.813-187.553c-3.06-4.143-6.052-8.7-3.138-18.22s3.2-12.934,2.178-21.557-5.655-22.392-14.7-22.809c0,0-.3,3.015-.78,7.829,1.468,11.37,3.833,30.793,4.118,40.015.417,13.491-6.4,25.195-6.4,25.195l37,.813S2868.872-183.41,2865.813-187.553Z" transform="translate(-2847.098 300.36)" fill="#d54a41"/>
      <path id="Trazado_13296" data-name="Trazado 13296" d="M3100.453-258.906c-1.251-12.934-9.875-26.336-10.292-26.659-.258-.2-4.34-1.179-7.421-1.9.906,2.137,10.461,24.909,10.063,34.288-.417,9.846.012,43.941.012,43.941h2.63S3101.7-245.971,3100.453-258.906Z" transform="translate(-3049.967 332.492)" fill="#f37168"/>
    </g>
    <path id="Trazado_13297" data-name="Trazado 13297" d="M2760.931,309.277c-.467-.228-.873-.4-1.255-.619a2.929,2.929,0,0,1-.936-.835c-.253-.35-.479-.72-.752-1.134a4.173,4.173,0,0,1-3.044,2.54c.3.123.492.2.681.279a3.451,3.451,0,0,1,1.974,4.22,3.413,3.413,0,0,1-3.825,2.394,3.461,3.461,0,0,1-.787-6.627c.173-.07.347-.134.579-.224-.449-.2-.85-.353-1.23-.548a2.946,2.946,0,0,1-.97-.8c-.27-.344-.5-.718-.763-1.1-.186.085-.209.289-.31.432-.122.171-.23.353-.362.516a3.636,3.636,0,0,1-.39.412,3.957,3.957,0,0,1-.445.351,3.563,3.563,0,0,1-.489.286c-.19.089-.39.156-.588.227-.177.063-.358.117-.608.2.244.078.422.13.6.191a3.434,3.434,0,1,1-2.115-.013c.159-.052.322-.093.58-.167a5.371,5.371,0,0,1-2.056-.975,4.151,4.151,0,0,1-1.192-1.8c-.249.041-.234.222-.291.343a3.851,3.851,0,0,1-2.663,2.222,3.646,3.646,0,0,1-3.2-.734,3.7,3.7,0,0,1-1.149-1.481c-.056-.125-.046-.3-.256-.353a3.79,3.79,0,0,1-7.33-.554c-.182.086-.175.262-.218.408a3.688,3.688,0,0,1-6.886.561c-.129-.286-.226-.586-.34-.884-.209.063-.191.262-.239.4a3.568,3.568,0,0,1-.827,1.4,3.612,3.612,0,0,1-6.224-2.177,3.489,3.489,0,0,1,1.79-3.442c.142-.089.289-.168.433-.254.015-.009.02-.034.049-.089-.139-.18-.386-.2-.568-.326s-.4-.23-.589-.364a3.545,3.545,0,0,1-.477-.412,5.171,5.171,0,0,1-.446-.531c-.136-.185-.253-.384-.4-.617-.074.064-.147.1-.182.16a4.132,4.132,0,0,1-2.473,1.935.832.832,0,0,0-.143.085c.126.187.34.212.513.288a3.52,3.52,0,0,1,1.7,1.537,3.557,3.557,0,0,1-4.222,5.107,3.535,3.535,0,0,1-2.428-3.286,3.5,3.5,0,0,1,2.135-3.355c.17-.076.339-.156.581-.267a6.384,6.384,0,0,1-1.808-.965,5.354,5.354,0,0,1-1.121-1.559c-.177-.029-.183.11-.239.183a1.723,1.723,0,0,0-.12.222,3.861,3.861,0,0,1-6.385.56,5.767,5.767,0,0,1-.5-.8c-.073-.123-.134-.253-.195-.368-.185-.007-.167.134-.217.212s-.074.151-.112.226a3.63,3.63,0,0,1-1.5,1.575,3.748,3.748,0,0,1-5.456-2.279c-.048-.182-.088-.366-.133-.553-.207.049-.164.224-.195.353a3.644,3.644,0,0,1-5.772,2.1,3.439,3.439,0,0,1-1.363-3.458,3.491,3.491,0,0,1,1.92-2.658c.13-.068.26-.137.388-.208.017-.009.027-.031.041-.048a5.011,5.011,0,0,1-2.556-2.278c-.209.153-.277.412-.443.589s-.324.388-.51.558a3.963,3.963,0,0,1-.6.454,4.708,4.708,0,0,1-.677.333c-.223.092-.458.155-.807.269.3.115.49.188.678.257a3.535,3.535,0,0,1,1.419,5.663,3.544,3.544,0,0,1-3.8.986,3.525,3.525,0,0,1-.312-6.543c.263-.117.538-.209.845-.327-.113-.173-.278-.144-.4-.194-.135-.057-.279-.094-.416-.149a3.922,3.922,0,0,1-.4-.182,3.362,3.362,0,0,1-.374-.234,5.015,5.015,0,0,1-.393-.315,3.756,3.756,0,0,1-.311-.313,3.6,3.6,0,0,1-.276-.345,3.97,3.97,0,0,1-.228-.378c-.071-.129-.132-.263-.2-.4s-.117-.248-.207-.439c-.215.3-.261.6-.425.833a6.339,6.339,0,0,1-.528.705,3.762,3.762,0,0,1-.671.568,3.591,3.591,0,0,1-.788.392,3.766,3.766,0,0,1-.86.182,4.421,4.421,0,0,1-.881-.007,3.559,3.559,0,0,1-2.123-1.015,4.406,4.406,0,0,1-1.129-2.094c-.089.248-.156.42-.213.594a3.608,3.608,0,1,1-5.033-4.4c.15-.075.3-.154.445-.233.013-.007.014-.036.037-.1-.205-.15-.47-.215-.693-.351a5.362,5.362,0,0,1-.627-.421,4.409,4.409,0,0,1-.578-.578,4.035,4.035,0,0,1-.417-.63c-.13-.237-.231-.491-.358-.766a1.445,1.445,0,0,0-.322.55,3.834,3.834,0,0,1-2.157,1.924,3.709,3.709,0,0,1-4.176-1.271,3.637,3.637,0,0,1-.384-3.93,1.725,1.725,0,0,1,.125-.219c.034-.052.079-.1.143-.175a19.085,19.085,0,0,1,2.048-.036c.674-.011,1.347,0,2.021,0h2.1l.578,1.041.495-1c.149-.015.272-.037.4-.037q2.9,0,5.809,0c.344,0,.344.006.672.24a.8.8,0,0,1,.671-.241c.168,0,.337,0,.505,0H2883.56c.168,0,.337,0,.505,0a.8.8,0,0,1,.67.238c.343-.228.343-.236.616-.236q3.062,0,6.125,0a1.862,1.862,0,0,1,.223.031l.432.7.462-.714h6.216a3.433,3.433,0,0,1,.656,1.583c.167.037.156-.077.169-.145a3.584,3.584,0,0,1,.589-1.4,7.908,7.908,0,0,1,1.5-.05c.484-.011.968,0,1.452,0h2.928a3.524,3.524,0,0,1,.253,3.895,3.651,3.651,0,0,1-3.5,1.8c-1.647-.18-2.713-1.194-3.279-3.12-.173.028-.151.177-.174.29a3.655,3.655,0,0,1-1.226,2.081,3.5,3.5,0,0,1-1.134.671c-.254.089-.508.173-.852.29.292.105.5.184.716.257a3.238,3.238,0,0,1,1.681,1.273,3.358,3.358,0,0,1,.179,3.753,3.312,3.312,0,0,1-3.251,1.776,3.349,3.349,0,0,1-3.052-2.2,3.483,3.483,0,0,1,2.035-4.6c.213-.072.422-.157.671-.25-1.195-.543-1.559-.239-3.045-2.414a4.938,4.938,0,0,1-2.558,2.461c.14.083.256.16.379.223a3.573,3.573,0,0,1,2.03,2.927,3.638,3.638,0,0,1-7.053,1.555c-.08-.215-.147-.435-.247-.731a3.859,3.859,0,0,0-.156.387,3.9,3.9,0,0,1-.917,1.705,3.768,3.768,0,0,1-6.061-.779c-.106-.2-.206-.395-.346-.664a5.55,5.55,0,0,1-1.17,1.776,4.66,4.66,0,0,1-1.8.96c-.021.149.064.172.142.2a4.206,4.206,0,0,1,1.12.57,3.558,3.558,0,0,1-2.062,6.412,3.56,3.56,0,0,1-1.454-6.841c.174-.071.349-.139.513-.2.031-.127-.04-.16-.124-.185a4.327,4.327,0,0,1-1.254-.579,3.948,3.948,0,0,1-1.048-1.08c-.078-.118-.172-.225-.281-.366a5.5,5.5,0,0,1-1.1,1.337c-.437.316-.908.586-1.362.874a3.859,3.859,0,0,1,2.262,4.324,3.765,3.765,0,0,1-3.151,2.8,3.671,3.671,0,0,1-3.306-1.342,3.759,3.759,0,0,1-.751-1.625c-.261.077-.217.257-.258.384a3.779,3.779,0,0,1-6.97.684c-.085-.164-.164-.331-.244-.492-.283.44-.535.876-.832,1.278a2.823,2.823,0,0,1-1.125.9c-.458.2-.942.347-1.442.526.062.111.195.088.294.113a3.638,3.638,0,0,1,2.243,1.523A3.485,3.485,0,1,1,2848,306.9a3.457,3.457,0,0,1,1.35-4.559,10.719,10.719,0,0,1,1.366-.562,1.194,1.194,0,0,0-.237-.1,3.919,3.919,0,0,1-2.872-2.152,1.516,1.516,0,0,0-.181-.221,6.229,6.229,0,0,1-1.126,1.543,5.2,5.2,0,0,1-1.665.915c.069.205.245.233.384.293a3.281,3.281,0,0,1,1.224.872,3.421,3.421,0,0,1,.664,3.759,3.561,3.561,0,0,1-6.493.231,3.535,3.535,0,0,1,1.673-4.806c.169-.078.336-.162.557-.27a2.394,2.394,0,0,0-.626-.314c-.183-.1-.382-.18-.558-.292a4.475,4.475,0,0,1-.552-.418,4.143,4.143,0,0,1-.433-.457c-.146-.175-.276-.365-.439-.583-.247.181-.326.458-.5.649a7.828,7.828,0,0,1-.574.584,4.613,4.613,0,0,1-.615.438c-.228.139-.471.254-.687.369,0,.178.109.211.2.256a3.571,3.571,0,0,1,2.03,3,3.382,3.382,0,0,1-.824,2.577,3.636,3.636,0,0,1-6.382-1.645,3.612,3.612,0,0,1,1.75-3.815c.155-.09.365-.113.462-.348-.291-.157-.592-.295-.866-.475a4.878,4.878,0,0,1-.736-.59c-.238-.233-.438-.5-.67-.778a13.313,13.313,0,0,1-1.022,1.105,12.5,12.5,0,0,1-1.224.842c.114.089.216.182.33.256a3.647,3.647,0,0,1,1.6,2.114,3.512,3.512,0,0,1-1.1,3.78,3.665,3.665,0,0,1-5.868-1.362c-.092-.227-.174-.459-.275-.725a1.355,1.355,0,0,0-.276.6,3.661,3.661,0,0,1-3.15,2.472,3.733,3.733,0,0,1-3.685-1.941c-.108-.2-.205-.412-.334-.672-.083.143-.151.238-.2.343a3.836,3.836,0,0,1-3.009,2.333,3.852,3.852,0,0,1-4.005-2.239c-.058-.132-.121-.261-.211-.455a2.161,2.161,0,0,0-.181.282,3.933,3.933,0,0,1-2.685,2.381c-.12.034-.236.081-.42.144.228.075.4.129.567.188a3.446,3.446,0,1,1-2.109-.017c.159-.051.321-.094.515-.151-.461-.177-.9-.316-1.3-.508a2.944,2.944,0,0,1-1.038-.812c-.286-.355-.537-.739-.806-1.115a4.619,4.619,0,0,1-2.9,2.44c.237.1.447.19.653.285a3.474,3.474,0,1,1-2.93,0c.2-.1.412-.185.65-.292a2.9,2.9,0,0,0-5.749.007c.194.095.357.178.523.255a3.422,3.422,0,0,1,1.894,2.164,3.5,3.5,0,1,1-5.051-2.034c.237-.129.486-.236.793-.383-.289-.181-.574-.236-.813-.376a6.164,6.164,0,0,1-.792-.513,4.26,4.26,0,0,1-.611-.635c-.183-.226-.331-.478-.48-.7-.145-.044-.184.048-.22.115a4.166,4.166,0,0,1-2.3,1.963c-.076.028-.148.068-.283.132.212.108.372.2.537.273a3.417,3.417,0,0,1,1.667,1.657,3.5,3.5,0,1,1-4.77-1.606,1.671,1.671,0,0,0,.621-.348,5.7,5.7,0,0,1-1.659-.934,7.368,7.368,0,0,1-1.117-1.485,5.8,5.8,0,0,1-1.107,1.506,5.2,5.2,0,0,1-1.6.887c.065.253.3.237.449.309a3.422,3.422,0,0,1,1.75,1.827,3.5,3.5,0,1,1-6.729,1.45,3.34,3.34,0,0,1,1.874-3.2c.2-.109.41-.2.673-.319a10.833,10.833,0,0,1-1.15-.581,4.575,4.575,0,0,1-.9-.781,10.957,10.957,0,0,1-.74-1.061c-.207.146-.242.412-.387.6s-.3.411-.468.594a4.071,4.071,0,0,1-.569.5,5.037,5.037,0,0,1-.648.387c-.218.113-.448.2-.741.331l.557.275a3.406,3.406,0,0,1,1.985,2.8,3.5,3.5,0,1,1-6.971.559,3.337,3.337,0,0,1,1.775-3.252c.215-.126.446-.224.674-.337-.023-.18-.181-.158-.273-.212-.127-.073-.27-.117-.4-.18a3.64,3.64,0,0,1-.336-.175,3.17,3.17,0,0,1-.311-.215c-.116-.09-.229-.186-.337-.285-.093-.085-.182-.176-.266-.269a3.227,3.227,0,0,1-.24-.293c-.085-.12-.158-.249-.237-.372-.067-.1-.137-.207-.228-.344-.225.162-.3.409-.445.6a5.142,5.142,0,0,1-.445.531,4.6,4.6,0,0,1-.581.482,4.267,4.267,0,0,1-.6.345c-.226.109-.464.193-.7.29.04.2.214.181.335.232a3.413,3.413,0,0,1,1.769,1.548,3.356,3.356,0,0,1-.082,3.541,3.278,3.278,0,0,1-3.138,1.633,3.453,3.453,0,0,1-3.226-4.173,3.366,3.366,0,0,1,1.864-2.411C2760.444,309.484,2760.657,309.4,2760.931,309.277Zm121.624-22.386a4.666,4.666,0,0,1,2.123,2.9c.1-.28.178-.537.285-.782a3.822,3.822,0,0,1,.871-1.3,5.5,5.5,0,0,1,.595-.465c.209-.156.5-.191.676-.406a11.9,11.9,0,0,1-1.334-.878,11.767,11.767,0,0,1-1.061-1.184c-.193.283-.36.571-.57.822a5.317,5.317,0,0,1-.714.708C2883.167,286.516,2882.872,286.681,2882.555,286.892Zm-216.454-.05a4.393,4.393,0,0,1,1.707,1.1,4.763,4.763,0,0,1,.9,1.776c.034-.042.052-.056.059-.074.029-.079.058-.158.08-.238a3.691,3.691,0,0,1,1.855-2.348.738.738,0,0,0,.153-.156,12.05,12.05,0,0,1-1.229-.911,12.578,12.578,0,0,1-.991-1.184A5.077,5.077,0,0,1,2666.1,286.842Zm24.917,10.62a4.486,4.486,0,0,1,2.1-3.057,12.566,12.566,0,0,1-1.208-.875,11.949,11.949,0,0,1-.96-1.095,11.339,11.339,0,0,1-1.066,1.094,12.268,12.268,0,0,1-1.337.82,9.176,9.176,0,0,1,.878.518,3.868,3.868,0,0,1,.731.687,4.425,4.425,0,0,1,.545.917A8.7,8.7,0,0,1,2691.019,297.462Zm29.759,2.558c-.189.227-.34.427-.511.609a4.2,4.2,0,0,1-.507.469c-.2.152-.424.269-.63.411s-.463.163-.664.386c.166.094.3.155.413.237a8.809,8.809,0,0,1,.854.635,3.33,3.33,0,0,1,.9,1.423c.056.163.038.384.26.474a1.252,1.252,0,0,0,.079-.175,3.78,3.78,0,0,1,1.872-2.418c.06-.033.1-.11.146-.171a12.133,12.133,0,0,1-1.171-.792A14.064,14.064,0,0,1,2720.778,300.021Zm141.492-2.855c.91-2.222,1.323-2.083,2.387-2.825a11.338,11.338,0,0,1-1.224-.756,13.12,13.12,0,0,1-1.084-1.08c-.2.252-.369.512-.58.735a6.53,6.53,0,0,1-.748.673c-.242.188-.514.338-.783.512A4.526,4.526,0,0,1,2862.27,297.166Zm-131.964,4.8a13.656,13.656,0,0,1-1.141-.8,13.3,13.3,0,0,1-.93-.976,12.792,12.792,0,0,1-.958.953c-.353.286-.756.509-1.164.776a1.337,1.337,0,0,0,.192.169,3.688,3.688,0,0,1,1.853,2.424,1.109,1.109,0,0,0,.155.261c.109-.323.184-.608.3-.875a3.783,3.783,0,0,1,.394-.712,4.511,4.511,0,0,1,.584-.654C2729.8,302.331,2730.045,302.17,2730.307,301.967Zm94.761-1.713a1.117,1.117,0,0,0-.181.158,4.851,4.851,0,0,1-1.663,1.422c-.059.031-.092.113-.137.171a4.142,4.142,0,0,1,1.846,2.511c.021.056.055.108.128.245a4.923,4.923,0,0,1,.741-1.656,5.825,5.825,0,0,1,1.345-1.161,6.938,6.938,0,0,1-2.079-1.689ZM2676.143,289.3a5.079,5.079,0,0,1,1.72-2.316c-.237-.176-.48-.338-.7-.524s-.392-.379-.59-.566-.305-.487-.56-.667c-.084.094-.142.152-.192.217a4.47,4.47,0,0,1-1.534,1.282c-.083.042-.2.069-.184.208A4.489,4.489,0,0,1,2676.143,289.3Zm59.515,14.952c.1-.1.154-.138.173-.189a3.993,3.993,0,0,1,1.488-1.9.721.721,0,0,0,.132-.182c-.34-.238-.664-.434-.95-.675s-.56-.544-.8-.784c-.215.189-.4.359-.594.518-.21.172-.424.341-.645.5-.2.14-.408.263-.621.4.385.348.754.651,1.086.991A3.654,3.654,0,0,1,2735.658,304.249Zm-37.275-11.331c-.208.208-.389.408-.589.587s-.391.313-.589.466a5.445,5.445,0,0,0-.7.456c.238.171.445.3.635.461a3.981,3.981,0,0,1,.5.475,5.051,5.051,0,0,1,.437.61c.127.2.229.423.365.678a11.876,11.876,0,0,1,.753-1.206,11.512,11.512,0,0,1,.987-.979c-.311-.224-.645-.434-.94-.688S2698.682,293.222,2698.384,292.918Zm180.793-6.039a4.947,4.947,0,0,1-1.845-1.541c-.205.248-.368.462-.55.659a6.4,6.4,0,0,1-.545.524c-.2.174-.423.328-.638.492a12.058,12.058,0,0,1,.913.991,11.593,11.593,0,0,1,.666,1.134A5,5,0,0,1,2879.177,286.879Zm-61.519,13.668c-.3.286-.555.562-.843.8s-.6.437-.9.656a12.165,12.165,0,0,1,.99,1.012,10.73,10.73,0,0,1,.694,1.138,11.4,11.4,0,0,1,.793-1.229,10.8,10.8,0,0,1,1.045-.975c-.341-.226-.67-.415-.963-.648S2817.921,300.8,2817.657,300.547Zm35.543-6.052c.247.223.478.4.672.614a5.973,5.973,0,0,1,.574.742c.154.234.269.493.424.785.131-.262.22-.474.339-.669a4.684,4.684,0,0,1,.438-.61c.149-.173.336-.313.495-.479s.444-.217.549-.449c-.058-.063-.08-.1-.114-.121a4.818,4.818,0,0,1-1.477-1.147.845.845,0,0,0-.215-.126A5.819,5.819,0,0,1,2853.2,294.494Zm-110.041,9.762c.163-.334.27-.606.421-.85a5.639,5.639,0,0,1,.565-.753c.19-.215.416-.4.651-.618-.319-.234-.616-.428-.884-.657s-.534-.514-.808-.783c-.284.268-.529.526-.8.75s-.6.433-.906.652A5.2,5.2,0,0,1,2743.159,304.257Zm68.724-2.241c-.321-.227-.621-.414-.891-.637s-.541-.5-.825-.767c-.282.283-.52.549-.787.781s-.554.422-.84.637a11.533,11.533,0,0,1,.932.983,12.57,12.57,0,0,1,.717,1.2c.155-.309.275-.6.439-.861a4.513,4.513,0,0,1,.541-.691C2811.38,302.439,2811.625,302.247,2811.884,302.015Zm-107.675-7.552a11.416,11.416,0,0,1,.919.88,13.145,13.145,0,0,1,.761,1.108c.212-.35.381-.684.6-.98.236-.314.521-.592.81-.912-.266-.212-.534-.407-.781-.626s-.472-.462-.731-.719c-.268.241-.5.474-.763.678S2704.486,294.272,2704.209,294.463ZM2847.48,293.3l-1.438,1.268c.2.2.383.365.546.553s.3.4.457.6.174.466.455.664a4.686,4.686,0,0,1,1.5-1.86Zm-91,8.769A4.54,4.54,0,0,1,2758,304c.233-.375.408-.71.634-1.006.237-.312.522-.587.813-.907-.263-.205-.5-.4-.752-.582-.268-.188-.433-.5-.743-.651-.245.223-.454.428-.678.614S2756.782,301.839,2756.476,302.071Zm-5.891-1.27c-.286.254-.514.471-.757.67s-.492.369-.718.535c.283.306.558.567.79.861s.446.65.692,1.013c.217-.333.4-.663.628-.952.246-.308.541-.578.844-.9-.263-.2-.519-.374-.757-.571S2750.845,301.041,2750.585,300.8Zm52.174.066-1.441,1.205c.259.274.537.529.768.821s.417.623.651.981c.2-.218.271-.494.441-.7s.322-.386.482-.581.442-.308.559-.562Zm-7.5,3.1c.244-.385.454-.719.667-1.052s.584-.523.795-.883c-.259-.194-.5-.36-.725-.545s-.465-.409-.7-.619c-.242.228-.46.424-.667.632s-.531.323-.736.614A4.922,4.922,0,0,1,2795.257,303.968Zm-22.346-.129c.2-.321.373-.634.588-.911.228-.294.5-.554.783-.861-.254-.2-.487-.369-.707-.555s-.433-.393-.664-.6c-.231.21-.442.412-.665.6s-.454.358-.711.56c.264.287.521.532.736.81C2772.5,303.172,2772.687,303.5,2772.91,303.839Zm8.869-1.765-1.4-1.148c-.244.223-.47.409-.673.619s-.51.278-.657.546c.266.29.523.537.74.816s.388.587.61.928c.209-.32.381-.628.6-.9C2781.224,302.641,2781.5,302.381,2781.779,302.074Zm-14.981.012-1.32-1.083-1.344,1.1c.187.187.354.34.5.509s.294.355.435.539.2.405.426.562A5.96,5.96,0,0,1,2766.8,302.087Zm-84.727-15.076c.2.172.393.326.568.5s.3.345.463.511.229.438.436.576l1.194-1.527c-.2-.175-.407-.378-.637-.549s-.365-.512-.671-.606Zm105.752,16.74c.246-.358.431-.63.619-.9s.522-.467.707-.8c-.24-.181-.451-.35-.673-.5s-.376-.445-.655-.536l-1.3,1.07A5.787,5.787,0,0,1,2787.823,303.751Zm82-15.186a5.013,5.013,0,0,1,1.3-1.532c-.243-.187-.451-.357-.67-.512s-.356-.407-.636-.52c-.354.435-.813.73-1.15,1.109Zm-156.462,7.485,1.1-1.44-1.169-1.016-1.173.956Zm126.723-2.39L2839,294.6l1.026,1.306c.193-.252.364-.482.542-.707s.469-.394.615-.677Zm-149.125-5.368.755-1.026a5.816,5.816,0,0,0-1-.864c-.255.272-.6.4-.776.711Zm142.539,6.336a3.63,3.63,0,0,0-.861-.7c-.166.146-.314.262-.445.395s-.337.185-.353.417c.186.245.371.5.565.739a1.758,1.758,0,0,0,.221.2Zm29.007-8.2a4.784,4.784,0,0,0-.849.847c.132.171.25.318.363.469s.214.293.347.476c.177-.214.327-.384.465-.564s.373-.323.5-.576Zm-142.6,8.2.893,1.04a8.9,8.9,0,0,0,.759-.968,3.682,3.682,0,0,0-.9-.69Zm8.419-.551a2.9,2.9,0,0,0-.752.691c.241.229.393.522.677.758a5.153,5.153,0,0,0,.679-.93Zm96.71,1.368a2.721,2.721,0,0,0,.658-.762,2.53,2.53,0,0,0-.7-.567,1.56,1.56,0,0,0-.614.535Zm-89.392-.218a2.539,2.539,0,0,0,.6-.746l-.265-.163-.274-.165-.54.482Zm7.007-.655a1.119,1.119,0,0,0,.486.493,2.144,2.144,0,0,0,.5-.608l-.449-.362A1.572,1.572,0,0,0,2742.653,294.569Zm-44.157-7.792-.572.493.433.487a1.383,1.383,0,0,0,.547-.658Zm119.08,7.355c-.157.134-.269.223-.372.32-.025.023-.023.076-.045.163.158.143.257.376.488.508a.979.979,0,0,0,.444-.55Zm-6.954.437a.917.917,0,0,0-.47-.455.693.693,0,0,0-.449.424l.435.495C2810.4,294.957,2810.479,294.756,2810.623,294.569Zm44.729-7.327-.49-.423a.386.386,0,0,0-.376.335c.145.153.232.372.477.487Zm-149.845-.067.3.314.471-.56-.247-.215A.877.877,0,0,0,2705.506,287.175Zm52.615,6.879c-.262.17-.454.232-.468.489l.3.267a.623.623,0,0,0,.4-.513Zm-7.58.815c.218-.118.357-.227.394-.456l-.338-.268-.38.351Zm45.121-.443-.374-.333c-.161.088-.317.151-.31.4l.343.315Zm7.4.092c-.34-.423-.366-.425-.652-.042l.349.37Zm44.417-7.086c.3-.331.3-.4.06-.591-.161-.13-.213-.112-.436.174Zm-74.544,6.673c-.188.073-.331.151-.326.388l.314.275.331-.36Zm7.118.311.309.323c.347-.245.389-.319.274-.46C2780.479,294.08,2780.376,294.1,2780.057,294.415Zm-14.572-.293c-.1.133-.206.213-.218.3-.008.062.1.165.181.207s.276-.1.254-.2S2765.584,294.259,2765.485,294.122Zm22.42.516a.832.832,0,0,0,.154-.249c.023-.1-.167-.238-.257-.191a.388.388,0,0,0-.177.216C2787.6,294.526,2787.738,294.65,2787.906,294.637Zm-74.45-7.869a.373.373,0,0,0-.086.017c-.091.051-.168.112-.13.234a.06.06,0,0,0,.044.034c.123,0,.177-.074.2-.183C2713.484,286.852,2713.472,286.832,2713.456,286.768Zm-52.369,3.586a3.482,3.482,0,1,0-3.5,3.471A3.471,3.471,0,0,0,2661.087,290.354Zm44.576,15.037a3.463,3.463,0,1,0-3.486,3.413A3.463,3.463,0,0,0,2705.663,305.391Zm175.169-11a3.441,3.441,0,0,0-.013,6.882,3.441,3.441,0,1,0,.013-6.882Zm-208.355.031a3.414,3.414,0,1,0,3.4,3.407A3.4,3.4,0,0,0,2672.478,294.422ZM2813.9,309.3a3.407,3.407,0,1,0,3.391,3.421A3.405,3.405,0,0,0,2813.9,309.3Zm44.617-7.367a3.407,3.407,0,1,0,3.364,3.444A3.376,3.376,0,0,0,2858.516,301.93Zm-122.486,10.8a3.393,3.393,0,1,0,3.384-3.425A3.357,3.357,0,0,0,2736.03,312.732Zm-41.16-10.779a3.384,3.384,0,1,0,3.349,3.407A3.339,3.339,0,0,0,2694.87,301.953Zm204.961-11.613a3.371,3.371,0,1,0,3.375-3.376A3.326,3.326,0,0,0,2899.831,290.341ZM2824.6,312.734a3.35,3.35,0,1,0-3.351,3.318A3.327,3.327,0,0,0,2824.6,312.734Zm-89.2.014a3.338,3.338,0,1,0-3.37,3.29A3.339,3.339,0,0,0,2735.4,312.749Zm-85.319-25.726a3.321,3.321,0,1,0,3.344,3.3A3.288,3.288,0,0,0,2650.084,287.023Zm238.273,7.5a3.312,3.312,0,1,0,3.312,3.342A3.3,3.3,0,0,0,2888.357,294.524Zm-240.632-8.866a3.6,3.6,0,0,0,4.822-.048,3.53,3.53,0,0,0,.47-4.678c-.478-.066-4.95-.086-5.815-.023A3.546,3.546,0,0,0,2647.725,285.658Zm184.334,27.085a3.3,3.3,0,0,0-3.315-3.334,3.3,3.3,0,0,0-.014,6.595A3.311,3.311,0,0,0,2832.06,312.743Zm33.961-10.7a3.3,3.3,0,1,0,3.258,3.323A3.306,3.306,0,0,0,2866.021,302.042ZM2724.579,316a3.291,3.291,0,1,0-.024-6.582,3.291,3.291,0,0,0,.024,6.582Zm-56.18-18.163a3.291,3.291,0,0,0-6.582,0,3.291,3.291,0,0,0,6.582,0Zm18.928,10.78a3.276,3.276,0,1,0-3.264-3.3A3.278,3.278,0,0,0,2687.326,308.614Zm148.887.856a3.2,3.2,0,0,0-3.209,3.221,3.245,3.245,0,1,0,6.49-.005A3.208,3.208,0,0,0,2836.214,309.47Zm-118.982.013a3.189,3.189,0,0,0-3.263,3.217,3.229,3.229,0,0,0,6.458.008A3.188,3.188,0,0,0,2717.231,309.483ZM2913.8,290.468a3.226,3.226,0,0,0-3.134-3.349,3.224,3.224,0,0,0-.189,6.445A3.24,3.24,0,0,0,2913.8,290.468Zm-5.61-4.965a3.467,3.467,0,0,0,4.71.049,3.424,3.424,0,0,0,.446-4.623c-.522-.07-5.013-.07-5.541,0A3.378,3.378,0,0,0,2908.194,285.5Zm-34.84,16.641a3.194,3.194,0,1,0,3.181,3.216A3.178,3.178,0,0,0,2873.354,302.143Zm-232.979-16.665a3.449,3.449,0,0,0,4.789-.057,3.344,3.344,0,0,0,.26-4.526h-5.379A3.383,3.383,0,0,0,2640.375,285.479ZM2898.907,297.8a3.194,3.194,0,0,0-6.388.037,3.194,3.194,0,1,0,6.388-.037ZM2642.75,287.162a3.192,3.192,0,0,0-3.188,3.2,3.181,3.181,0,1,0,6.361-.048A3.187,3.187,0,0,0,2642.75,287.162Zm37.216,15a3.174,3.174,0,1,0,3.17,3.171A3.159,3.159,0,0,0,2679.966,302.164Zm163.654,7.388a3.154,3.154,0,0,0-3.175,3.1,3.191,3.191,0,0,0,3.128,3.222,3.157,3.157,0,0,0,3.194-3.144A3.121,3.121,0,0,0,2843.621,309.552Zm-133.929,6.308a3.151,3.151,0,1,0-3.141-3.194A3.133,3.133,0,0,0,2709.691,315.859Zm-48.927-18.009a3.158,3.158,0,1,0-3.189,3.143A3.151,3.151,0,0,0,2660.764,297.85Zm254.345-13.378a3.173,3.173,0,0,0,3.013,1.816,3.319,3.319,0,0,0,2.828-4.991.753.753,0,0,0-.756-.426c-1.447.018-2.9.007-4.344.008-.1,0-.208.01-.34.017A3.253,3.253,0,0,0,2915.109,284.472Zm-64.018,25.151a3.081,3.081,0,1,0,3.108,3.057A3.052,3.052,0,0,0,2851.091,309.623Zm29.767-7.362a3.077,3.077,0,1,0,3.048,3.06A3.077,3.077,0,0,0,2880.858,302.261Zm34.153-11.936a3.059,3.059,0,1,0,6.118,0,3.059,3.059,0,0,0-6.118,0ZM2632.935,285.3a3.261,3.261,0,0,0,4.806-4.4h-4.993A3.184,3.184,0,0,0,2632.935,285.3Zm66.209,27.364a3.058,3.058,0,1,0,3.08-3.011A3.057,3.057,0,0,0,2699.144,312.664Zm-26.656-10.378a3.052,3.052,0,1,0,3.02,3.07A3.021,3.021,0,0,0,2672.489,302.286Zm233.761-4.439a3.049,3.049,0,1,0-3.056,3.034A3.036,3.036,0,0,0,2906.25,297.847Zm-119.045,22.365a3.043,3.043,0,1,0-6.086-.029,3.043,3.043,0,0,0,6.086.029Zm-7.5.013a3.045,3.045,0,1,0-6.091-.054,3.045,3.045,0,0,0,6.091.054Zm14.866-.062a3.041,3.041,0,0,0-6.081.039,3.041,3.041,0,1,0,6.081-.039Zm-22.365.03a3.05,3.05,0,0,0-3.061-3.037,3.019,3.019,0,0,0-3.007,3.015,2.979,2.979,0,0,0,3.016,3.055A3.012,3.012,0,0,0,2772.2,320.193Zm-136.9-32.879a3.033,3.033,0,1,0,2.967,3.053A3.025,3.025,0,0,0,2635.3,287.314Zm126.513,29.849a3.048,3.048,0,0,0-3.047,3.046,3.006,3.006,0,0,0,3.07,3.007,2.976,2.976,0,0,0,2.971-3.03A3.018,3.018,0,0,0,2761.81,317.164Zm-111.664-22.348a3.021,3.021,0,1,0,2.975,3.046A3.016,3.016,0,0,0,2650.147,294.816Zm148.875,22.356a3.021,3.021,0,1,0,3.014,3.015A3.026,3.026,0,0,0,2799.022,317.172Zm-41.721,3.05a3.012,3.012,0,1,0-3.032,2.981A3,3,0,0,0,2757.3,320.222Zm101.15-10.519a3,3,0,1,0,3.028,2.988A3.03,3.03,0,0,0,2858.451,309.7Zm-52.028,7.507a2.988,2.988,0,1,0,2.943,3.01A3.005,3.005,0,0,0,2806.423,317.209Zm-108.626-4.48a2.93,2.93,0,0,0-2.938-3,2.973,2.973,0,1,0-.052,5.946A2.931,2.931,0,0,0,2697.8,312.729Zm49.137,4.494a2.973,2.973,0,1,0,2.967,2.983A3,3,0,0,0,2746.934,317.223Zm175.489-33.34a3,3,0,0,0,2.521,2.186,2.96,2.96,0,0,0,3.14-1.4,3.066,3.066,0,0,0,.009-3.4.725.725,0,0,0-.713-.4c-1.323.018-2.645.007-3.967.008-.1,0-.207.012-.356.022A3.069,3.069,0,0,0,2922.423,283.883Zm-108.481,33.361a2.98,2.98,0,0,0-3,2.931,2.943,2.943,0,1,0,5.887.048A2.971,2.971,0,0,0,2813.941,317.244ZM2624.82,283.575a3.118,3.118,0,1,0,5.687-2.286.773.773,0,0,0-.768-.419c-1.26.019-2.521.007-3.782.008-.125,0-.25.012-.42.021A3.1,3.1,0,0,0,2624.82,283.575Zm263.53,18.818a2.943,2.943,0,1,0,2.942,2.919A2.94,2.94,0,0,0,2888.35,302.393ZM2736.5,320.171a2.928,2.928,0,1,0,2.943-2.909A2.919,2.919,0,0,0,2736.5,320.171Zm-71.388-17.746a2.913,2.913,0,1,0,2.917,2.931A2.9,2.9,0,0,0,2665.108,302.425Zm153.236,17.738a2.9,2.9,0,1,0,2.927-2.875A2.916,2.916,0,0,0,2818.344,320.163Zm-83.39.011a2.895,2.895,0,1,0-2.868,2.912A2.888,2.888,0,0,0,2734.955,320.174Zm190.459-32.718a2.889,2.889,0,1,0,2.913,2.86A2.9,2.9,0,0,0,2925.413,287.456Zm-14.86,7.486a2.89,2.89,0,1,0,2.908,2.873A2.9,2.9,0,0,0,2910.553,294.942Zm-44.582,14.871a2.895,2.895,0,0,0,.015,5.789,2.895,2.895,0,0,0-.015-5.789Zm-178.611.026a2.834,2.834,0,0,0-2.89,2.872,2.869,2.869,0,1,0,5.737-.014A2.85,2.85,0,0,0,2687.36,309.839Zm-56.633-19.461a2.855,2.855,0,0,0-5.709-.107,2.855,2.855,0,1,0,5.709.107Zm12.048,4.6a2.857,2.857,0,1,0,2.817,2.876A2.866,2.866,0,0,0,2642.775,294.98Zm183.131,25.208a2.844,2.844,0,1,0,2.873-2.833A2.859,2.859,0,0,0,2825.906,320.188Zm-98.514.061a2.828,2.828,0,1,0-2.845,2.785A2.839,2.839,0,0,0,2727.392,320.249ZM2934.987,280.9c-1.3-.008-2.6-.012-3.906-.024a.552.552,0,0,0-.474.257,2.971,2.971,0,0,0,2.3,4.806,2.932,2.932,0,0,0,2.751-1.771,2.9,2.9,0,0,0-.611-3.248A.2.2,0,0,0,2934.987,280.9Zm-39.255,21.626a2.811,2.811,0,1,0,2.788,2.816A2.8,2.8,0,0,0,2895.731,302.526Zm-276.2-16.746a2.934,2.934,0,0,0,3.22-4.529.8.8,0,0,0-.732-.381c-1.113.02-2.227.007-3.34.009-.124,0-.249.017-.368.026A2.928,2.928,0,0,0,2619.535,285.78Zm256.589,26.937a2.776,2.776,0,1,0-2.775,2.772A2.793,2.793,0,0,0,2876.124,312.717Zm-39.852,4.716a2.766,2.766,0,1,0-.048,5.532,2.766,2.766,0,0,0,.048-5.532Zm-175.9-12.068a2.766,2.766,0,1,0-2.783,2.74A2.748,2.748,0,0,0,2660.376,305.365Zm19.561,4.585a2.757,2.757,0,1,0,2.773,2.739A2.744,2.744,0,0,0,2679.937,309.95ZM2719.95,320.2a2.751,2.751,0,1,0-2.763,2.761A2.763,2.763,0,0,0,2719.95,320.2Zm195.394-22.43a2.73,2.73,0,1,0,2.785-2.671A2.734,2.734,0,0,0,2915.344,297.766Zm20.293-7.4a2.7,2.7,0,0,0-2.706-2.732,2.706,2.706,0,0,0,.013,5.412A2.706,2.706,0,0,0,2935.637,290.365Zm-94.716,29.83a2.692,2.692,0,1,0,2.7-2.681A2.7,2.7,0,0,0,2840.921,320.195Zm-128.55,0a2.674,2.674,0,0,0-2.63-2.674,2.713,2.713,0,0,0-2.722,2.651,2.674,2.674,0,0,0,2.667,2.695A2.641,2.641,0,0,0,2712.371,320.2Zm-74.455-22.39a2.677,2.677,0,0,0-5.353.031,2.677,2.677,0,1,0,5.353-.031Zm302.548-16.927c-.526,0-1.052,0-1.577,0a.609.609,0,0,0-.5.216,2.668,2.668,0,0,0-.639,2.577,2.7,2.7,0,0,0,2.941,2.049,2.582,2.582,0,0,0,2.313-1.694,2.686,2.686,0,0,0-.479-2.891.7.7,0,0,0-.608-.26c-.483.012-.967,0-1.451,0Zm-37.268,21.8a2.66,2.66,0,1,0,.021,5.32,2.66,2.66,0,0,0-.021-5.32Zm-25,9.981a2.65,2.65,0,1,0,2.68-2.6A2.648,2.648,0,0,0,2878.193,312.658ZM2620.4,293a2.669,2.669,0,0,0,2.63-2.679,2.638,2.638,0,0,0-2.669-2.627,2.608,2.608,0,0,0-2.617,2.667A2.637,2.637,0,0,0,2620.4,293Zm-4.911-8.874a2.658,2.658,0,0,0-.4-2.946.753.753,0,0,0-.649-.307c-.923.014-1.848.024-2.771,0a.885.885,0,0,0-.8.4,2.738,2.738,0,1,0,4.621,2.861Zm54.353,28.557a2.629,2.629,0,1,0,2.62-2.608A2.645,2.645,0,0,0,2669.839,312.683Zm-19.68-9.966a2.619,2.619,0,1,0-.106,5.237,2.619,2.619,0,1,0,.106-5.237Zm203.56,17.478a2.624,2.624,0,0,0-2.564-2.6,2.6,2.6,0,1,0,2.564,2.6Zm-151.544,2.6a2.589,2.589,0,1,0-2.563-2.582A2.589,2.589,0,0,0,2702.174,322.79Zm225.8-24.968a2.541,2.541,0,1,0-2.554,2.552A2.527,2.527,0,0,0,2927.978,297.822Zm-153.845,29.736a2.521,2.521,0,0,0,5.042.051,2.521,2.521,0,0,0-5.042-.051Zm-4.957,2.522a2.509,2.509,0,1,0,0-5.019,2.509,2.509,0,1,0,0,5.019Zm116.661-17.357a2.508,2.508,0,1,0,2.5-2.537A2.5,2.5,0,0,0,2885.837,312.722Zm-24.847,7.519a2.513,2.513,0,1,0-2.518,2.461A2.531,2.531,0,0,0,2860.99,320.241Zm89.189-36.3a2.586,2.586,0,0,0-.608-2.839.764.764,0,0,0-.56-.231c-.8.007-1.595.009-2.392,0a.814.814,0,0,0-.612.26,2.571,2.571,0,1,0,4.172,2.812ZM2789.02,327.523a2.5,2.5,0,1,0,2.514-2.449A2.492,2.492,0,0,0,2789.02,327.523Zm-7.369.08a2.508,2.508,0,1,0,2.485-2.539A2.487,2.487,0,0,0,2781.651,327.6Zm-151.276-29.749a2.5,2.5,0,1,0-2.5,2.477A2.511,2.511,0,0,0,2630.375,297.854Zm312.558-7.478a2.5,2.5,0,1,0-2.52,2.451A2.482,2.482,0,0,0,2942.933,290.376Zm-183.64,37.18a2.5,2.5,0,1,0,4.992.024,2.5,2.5,0,0,0-4.992-.024Zm39.75-2.472a2.484,2.484,0,1,0,2.465,2.505A2.474,2.474,0,0,0,2799.044,325.083Zm-133.867-14.86a2.431,2.431,0,0,0-2.548,2.359,2.471,2.471,0,0,0,2.369,2.6,2.518,2.518,0,0,0,2.591-2.395A2.48,2.48,0,0,0,2665.177,310.223Zm89.075,14.868a2.452,2.452,0,0,0-2.439,2.471,2.425,2.425,0,0,0,2.492,2.474,2.46,2.46,0,0,0,2.476-2.5A2.5,2.5,0,0,0,2754.251,325.091Zm158.805-19.708a2.486,2.486,0,1,0-2.531,2.431A2.459,2.459,0,0,0,2913.057,305.383Zm-215.746,14.824a2.475,2.475,0,0,0-4.95-.039,2.475,2.475,0,1,0,4.95.039Zm-90.1-39.089a.774.774,0,0,0-.56-.242q-1.135.009-2.271,0a.794.794,0,0,0-.565.231,2.489,2.489,0,0,0-.8,1.467,2.527,2.527,0,0,0,2.235,2.9,2.5,2.5,0,0,0,2.784-2.333A2.6,2.6,0,0,0,2607.214,281.118Zm199.2,44a2.446,2.446,0,0,0-.063,4.892,2.446,2.446,0,1,0,.063-4.892ZM2642.71,302.889a2.447,2.447,0,1,0,2.474,2.418A2.451,2.451,0,0,0,2642.71,302.889Zm-27.245-12.539a2.45,2.45,0,0,0-2.441-2.459,2.447,2.447,0,0,0-.023,4.893A2.456,2.456,0,0,0,2615.465,290.35Zm131.475,39.639a2.39,2.39,0,0,0,2.42-2.39,2.432,2.432,0,1,0-4.864-.035A2.382,2.382,0,0,0,2746.94,329.989Zm66.944-4.818a2.393,2.393,0,1,0,2.41,2.393A2.376,2.376,0,0,0,2813.884,325.171Zm54.478-5a2.378,2.378,0,1,0-2.383,2.415A2.365,2.365,0,0,0,2868.361,320.173Zm-131.312,7.375a2.381,2.381,0,0,0,4.763.035,2.381,2.381,0,0,0-4.763-.035Zm158.675-12.478a2.367,2.367,0,1,0-2.385-2.351A2.37,2.37,0,0,0,2895.725,315.071Zm-210.759,5.144a2.371,2.371,0,1,0,2.358-2.368A2.379,2.379,0,0,0,2684.966,320.215Zm138.633,7.4a2.345,2.345,0,1,0-2.363,2.292A2.321,2.321,0,0,0,2823.6,327.615Zm-89.2-.055a2.339,2.339,0,1,0-4.677.045,2.339,2.339,0,0,0,4.677-.045Zm198.548-32.06a2.339,2.339,0,1,0,2.317,2.336A2.34,2.34,0,0,0,2932.947,295.5Zm-275.376,14.884a2.319,2.319,0,1,0,2.355,2.3A2.312,2.312,0,0,0,2657.571,310.384Zm260.507-7.351a2.3,2.3,0,1,0,2.3,2.278A2.306,2.306,0,0,0,2918.078,303.033Zm36.565-22.159a1.059,1.059,0,0,0-.807.285,2.268,2.268,0,0,0-.782,2.435,2.332,2.332,0,1,0,3.72-2.429,1.1,1.1,0,0,0-.806-.291c-.23.018-.462,0-.694,0C2955.063,280.877,2954.852,280.891,2954.643,280.874ZM2622.66,297.863a2.281,2.281,0,1,0-4.562-.049,2.281,2.281,0,1,0,4.562.049Zm203.812,29.7a2.281,2.281,0,1,0,2.282-2.275A2.258,2.258,0,0,0,2826.472,327.563ZM2947.8,288.071a2.259,2.259,0,0,0-2.266,2.288,2.267,2.267,0,0,0,4.535-.01A2.244,2.244,0,0,0,2947.8,288.071ZM2722.3,327.6a2.262,2.262,0,1,0,2.26-2.288A2.22,2.22,0,0,0,2722.3,327.6Zm153.3-7.376a2.253,2.253,0,1,0-4.506-.007,2.253,2.253,0,0,0,4.506.007Zm-240.338-17.134a2.248,2.248,0,1,0,2.229,2.252A2.23,2.23,0,0,0,2635.263,303.088Zm-37.67-22.214a1.384,1.384,0,0,0-1.177.481,2.289,2.289,0,0,0-.472,2.558,2.166,2.166,0,0,0,2.11,1.317,2.1,2.1,0,0,0,2.026-1.338,2.2,2.2,0,0,0-.4-2.462,1.409,1.409,0,0,0-1.27-.555,3.092,3.092,0,0,1-.377,0A3.44,3.44,0,0,1,2597.593,280.874Zm82.432,37.1a2.227,2.227,0,1,0,2.165,2.251A2.216,2.216,0,0,0,2680.025,317.977Zm158.447,9.607a2.22,2.22,0,1,0-2.223,2.193A2.232,2.232,0,0,0,2838.472,327.584Zm-235.178-37.26a2.216,2.216,0,1,0,4.433-.005,2.216,2.216,0,0,0-4.433.005Zm113.873,39.441A2.2,2.2,0,1,0,2715,327.52,2.206,2.206,0,0,0,2717.166,329.765Zm188.236-17.1a2.192,2.192,0,1,0-2.173,2.229A2.153,2.153,0,0,0,2905.4,312.666Zm-257.447.05a2.147,2.147,0,0,0,4.295,0,2.147,2.147,0,1,0-4.295,0Zm232.939,5.371a2.116,2.116,0,1,0,2.069,2.182A2.119,2.119,0,0,0,2880.9,318.086Zm-35.173,9.475a2.1,2.1,0,1,0-2.115,2.113A2.078,2.078,0,0,0,2845.722,327.562Zm92.6-29.754a2.109,2.109,0,1,0,4.218,0,2.109,2.109,0,0,0-4.218,0Zm-226.519,29.767a2.124,2.124,0,0,0-2.133-2.107,2.1,2.1,0,1,0,.048,4.2A2.119,2.119,0,0,0,2711.807,327.575Zm215.737-22.195a2.094,2.094,0,0,0-2.106-2.135,2.091,2.091,0,0,0-.025,4.181A2.093,2.093,0,0,0,2927.544,305.38Zm35.141-24.49a2.084,2.084,0,1,0-.034,4.168,2.084,2.084,0,1,0,.034-4.168ZM2672.5,318.124a2.066,2.066,0,0,0-2.11,2.056,2.091,2.091,0,1,0,2.11-2.056Zm-44.615-10.741a2.048,2.048,0,1,0-2.057-2.04A2.045,2.045,0,0,0,2627.882,307.383Zm-14.875-11.591a2.047,2.047,0,0,0,.01,4.094,2.047,2.047,0,1,0-.01-4.094Zm340.286-5.463a2.009,2.009,0,1,0,2-2A1.992,1.992,0,0,0,2953.292,290.329Zm-100.17,37.25a2.01,2.01,0,1,0-2.008,1.991A1.983,1.983,0,0,0,2853.123,327.578Zm-262.486-46.613a2.006,2.006,0,1,0,2.018,1.979A2,2,0,0,0,2590.636,280.965Zm319.949,29.742a1.968,1.968,0,0,0-2,2,1.989,1.989,0,1,0,2-2Zm-210.358,16.854a1.974,1.974,0,0,0,3.947.072,1.974,1.974,0,1,0-3.947-.072Zm-59.445-14.843a1.971,1.971,0,0,0,1.942,1.93,1.943,1.943,0,0,0,1.96-1.9,1.951,1.951,0,1,0-3.9-.026Zm245.614,7.442a1.945,1.945,0,1,0,3.889.025,1.945,1.945,0,0,0-3.889-.025Zm-286.439-29.779a1.947,1.947,0,1,0-1.959,1.9A1.943,1.943,0,0,0,2599.958,290.382Zm65.2,27.914a1.906,1.906,0,1,0,1.852,1.934A1.9,1.9,0,0,0,2665.159,318.3Zm191.433,9.231a1.888,1.888,0,1,0,1.913-1.841A1.868,1.868,0,0,0,2856.593,327.527Zm93.064-29.7a1.851,1.851,0,1,0-1.827,1.87A1.862,1.862,0,0,0,2949.657,297.831Zm-252.964,29.762a1.854,1.854,0,1,0-1.865,1.819A1.843,1.843,0,0,0,2696.693,327.593Zm236.266-24.107a1.85,1.85,0,1,0,1.822,1.858A1.834,1.834,0,0,0,2932.958,303.485Zm-163.791,29.742a1.838,1.838,0,1,0,1.82,1.865A1.851,1.851,0,0,0,2769.167,333.227Zm16.821,1.807a1.833,1.833,0,1,0-1.817,1.87A1.84,1.84,0,0,0,2785.988,335.034Zm-9.333-1.807a1.839,1.839,0,0,0-.02,3.677,1.839,1.839,0,1,0,.02-3.677Zm14.9.025a1.817,1.817,0,1,0-.038,3.634,1.84,1.84,0,0,0,1.826-1.8A1.817,1.817,0,0,0,2791.554,333.252ZM2759.973,335a1.82,1.82,0,1,0,1.87-1.749A1.833,1.833,0,0,0,2759.973,335ZM2620.4,307.136a1.8,1.8,0,1,0-1.828-1.773A1.805,1.805,0,0,0,2620.4,307.136Zm176.827,27.88a1.777,1.777,0,0,0,1.7,1.848,1.8,1.8,0,1,0,.164-3.591A1.764,1.764,0,0,0,2797.229,335.016Zm171.155-52.058a1.779,1.779,0,1,0,3.556-.03,1.779,1.779,0,0,0-3.556.03Zm-214.1,50.334a1.778,1.778,0,1,0,1.788,1.792A1.779,1.779,0,0,0,2754.281,333.291ZM2605.6,296.064a1.778,1.778,0,1,0,1.684,1.851A1.79,1.79,0,0,0,2605.6,296.064Zm310.692,16.654a1.778,1.778,0,1,0,1.791-1.8A1.78,1.78,0,0,0,2916.292,312.719Zm-18.834,7.476a1.752,1.752,0,1,0-1.758,1.76A1.726,1.726,0,0,0,2897.458,320.195Zm-31.492,5.624a1.751,1.751,0,1,0,1.761,1.75A1.727,1.727,0,0,0,2865.965,325.819Zm-120.772,9.205a1.728,1.728,0,1,0,3.456.051,1.712,1.712,0,0,0-1.7-1.748A1.73,1.73,0,0,0,2745.193,335.024Zm61.206-1.7a1.729,1.729,0,0,0-1.747,1.756,1.731,1.731,0,1,0,3.461-.036A1.714,1.714,0,0,0,2806.4,333.327ZM2964.392,290.4a1.724,1.724,0,0,0-3.446-.13,1.724,1.724,0,0,0,3.446.13Zm-306.772,28.088a1.719,1.719,0,1,0,1.7,1.73A1.706,1.706,0,0,0,2657.619,318.488Zm-24.083-5.789a1.71,1.71,0,1,0,3.421,0,1.711,1.711,0,1,0-3.421,0Zm53.813,13.152a1.716,1.716,0,1,0-.034,3.431,1.716,1.716,0,0,0,.034-3.431Zm-104.123-44.577a1.7,1.7,0,1,0-.1,3.4,1.7,1.7,0,0,0,.1-3.4Zm228.948,53.846a1.728,1.728,0,0,0,1.735,1.646,1.7,1.7,0,0,0,1.675-1.76,1.706,1.706,0,1,0-3.409.114Zm-72.77,1.627a1.682,1.682,0,1,0-1.654-1.71A1.7,1.7,0,0,0,2739.4,336.748Zm-147.1-46.4a1.655,1.655,0,1,0-1.645,1.649A1.648,1.648,0,0,0,2592.3,290.345Zm228.929,43.083a1.635,1.635,0,0,0,.014,3.271,1.635,1.635,0,1,0-.014-3.271Zm53.714-5.863a1.577,1.577,0,0,0-1.588-1.609,1.605,1.605,0,0,0-1.627,1.642,1.589,1.589,0,0,0,1.629,1.571A1.559,1.559,0,0,0,2874.944,327.565ZM2733.65,335.03a1.6,1.6,0,0,0-1.574-1.567,1.626,1.626,0,0,0-1.612,1.6,1.584,1.584,0,0,0,1.615,1.581A1.56,1.56,0,0,0,2733.65,335.03Zm96.666.065a1.58,1.58,0,0,0-1.521-1.611,1.613,1.613,0,0,0-1.628,1.58,1.575,1.575,0,0,0,1.565,1.563A1.544,1.544,0,0,0,2830.315,335.094Zm110.15-31.334a1.574,1.574,0,1,0-.029,3.149,1.575,1.575,0,0,0,.029-3.149Zm-262.053,23.832a1.554,1.554,0,0,0,3.107-.022,1.562,1.562,0,0,0-1.562-1.567A1.58,1.58,0,0,0,2678.412,327.593Zm224.821-5.835a1.551,1.551,0,1,0-1.576-1.546A1.545,1.545,0,0,0,2903.233,321.759ZM2613.043,303.8a1.535,1.535,0,1,0-.032,3.07,1.535,1.535,0,0,0,.032-3.07Zm310.87,8.918a1.514,1.514,0,0,0,1.545,1.506,1.523,1.523,0,1,0-1.545-1.506Zm32.917-14.884a1.531,1.531,0,1,0-1.512,1.532A1.551,1.551,0,0,0,2956.831,297.835Zm-358.821-1.5a1.506,1.506,0,1,0,1.5,1.474A1.493,1.493,0,0,0,2598.01,296.332Zm126.572,37.232a1.5,1.5,0,1,0,1.48,1.489A1.495,1.495,0,0,0,2724.581,333.565Zm111.673,0a1.5,1.5,0,1,0,1.5,1.474A1.5,1.5,0,0,0,2836.254,333.564ZM2651.583,320.2a1.475,1.475,0,1,0-1.476,1.476A1.467,1.467,0,0,0,2651.583,320.2Zm230.723,7.382a1.453,1.453,0,0,0-1.473-1.472,1.453,1.453,0,0,0,.027,2.907A1.456,1.456,0,0,0,2882.306,327.585ZM2626.434,312.7a1.4,1.4,0,0,0,1.433,1.437,1.428,1.428,0,0,0,1.464-1.48,1.469,1.469,0,0,0-1.476-1.422A1.439,1.439,0,0,0,2626.434,312.7Zm351.138-31.146a1.418,1.418,0,1,0-.05,2.836,1.419,1.419,0,0,0,.05-2.836Zm-260.426,52.128a1.391,1.391,0,0,0-1.338,1.4,1.406,1.406,0,0,0,1.377,1.367,1.385,1.385,0,0,0,1.392-1.406A1.369,1.369,0,0,0,2717.146,333.686Zm193.425-14.839a1.358,1.358,0,0,0-1.359,1.356,1.377,1.377,0,0,0,1.36,1.358,1.357,1.357,0,0,0,0-2.714Zm59.6-29.865a1.343,1.343,0,0,0-1.356,1.354,1.353,1.353,0,1,0,1.356-1.354Zm-296.355,38.6a1.342,1.342,0,0,0-1.37-1.348,1.332,1.332,0,0,0,.03,2.664A1.344,1.344,0,0,0,2673.812,327.584Zm171.125,6.926a1.4,1.4,0,0,0-.673-.721,1.45,1.45,0,0,0-1.769.383,1.322,1.322,0,0,0,.048,1.768,23.626,23.626,0,0,0,2.409-.407A1.226,1.226,0,0,0,2844.937,334.51Zm88-23.06a1.255,1.255,0,1,0,1.259,1.239A1.261,1.261,0,0,0,2932.936,311.449Zm-223.214,22.362a1.253,1.253,0,1,0,1.232,1.259A1.265,1.265,0,0,0,2709.721,333.811Zm239.331-28.471a1.251,1.251,0,1,0-2.5.023,1.251,1.251,0,0,0,2.5-.023Zm-306.263,13.648a1.2,1.2,0,0,0-1.274,1.2,1.23,1.23,0,0,0,1.172,1.245,1.21,1.21,0,0,0,1.267-1.206A1.183,1.183,0,0,0,2642.789,318.989Zm-21.244-6.291a1.158,1.158,0,0,0-1.161-1.156,1.189,1.189,0,0,0-1.192,1.2,1.207,1.207,0,0,0,1.2,1.129A1.172,1.172,0,0,0,2621.545,312.7ZM2962.7,296.673a1.167,1.167,0,1,0-.04,2.334,1.167,1.167,0,0,0,.04-2.334Zm-356.823,9.7a.354.354,0,0,0,.46-.061,1.239,1.239,0,0,0,.406-1.3,1.215,1.215,0,0,0-1-.93,1.182,1.182,0,0,0-1.224.457,3.8,3.8,0,0,0-.322.645A14.25,14.25,0,0,0,2605.88,306.375Zm60.324,21.192a1.1,1.1,0,1,0-1.117,1.1A1.087,1.087,0,0,0,2666.2,327.567Zm36.025,6.4a1.1,1.1,0,1,0,1.071,1.1A1.1,1.1,0,0,0,2702.229,333.965Zm185.452-6.186a10.52,10.52,0,0,1,1.575-.365c.126-.008.244-.133.363-.2a1.337,1.337,0,0,0-1.645-.932,1.306,1.306,0,0,0-.779.6,1,1,0,0,0-.135.884A.97.97,0,0,0,2887.681,327.779Zm-251.5-7.619a.929.929,0,0,0-.947-.893.92.92,0,0,0-.923.976.93.93,0,0,0,.942.9A.94.94,0,0,0,2636.179,320.16Zm348.911-38.124a.915.915,0,0,0-.988.909.929.929,0,0,0,.869.973.967.967,0,0,0,1-.917A.951.951,0,0,0,2985.091,282.036Zm-7.522,7.372a.931.931,0,0,0-.974.927.922.922,0,0,0,.965.932.909.909,0,0,0,.907-.922A.921.921,0,0,0,2977.568,289.408ZM2694.9,334.142a.929.929,0,1,0-.124,1.853.929.929,0,1,0,.124-1.853Zm-37.273-7.44a.866.866,0,0,0-.063,1.731.866.866,0,1,0,.063-1.731ZM2762.67,342.65a.609.609,0,0,0,.034-.184.922.922,0,0,0-.966-.935.933.933,0,0,0-.858.979c.025.28.156.422.433.429.4.01.792,0,1.223,0C2762.6,342.8,2762.642,342.727,2762.67,342.65Zm-8.345.447c.063,0,.126,0,.188,0a.543.543,0,0,0,.573-.47.8.8,0,0,0-.292-.843.846.846,0,0,0-.891-.073.768.768,0,0,0-.413.726c.006.413.219.716.646.663a1.526,1.526,0,0,1,.189,0Zm15.341-1.453a.926.926,0,0,0-1.107.077,1.273,1.273,0,0,0-.3.465.551.551,0,0,0,.118.62,8.337,8.337,0,0,0,1.63-.045C2770.128,342.193,2770.025,341.872,2769.666,341.645Zm-82.3-7.353a.772.772,0,0,0-.8.776.757.757,0,0,0,.742.769.765.765,0,0,0,.805-.771A.777.777,0,0,0,2687.367,334.291Zm162.766.517a2.694,2.694,0,0,0,.3-.059c.122-.025.242-.057.365-.072.413-.051.826-.092,1.239-.144a.2.2,0,0,0,.109-.339,1.343,1.343,0,0,0-2.3.405.525.525,0,0,0,.025.187A1.55,1.55,0,0,0,2850.133,334.808Zm-72.532,7.644a.778.778,0,0,0-.276-.725.891.891,0,0,0-.687-.259.919.919,0,0,0-.678.282.765.765,0,0,0-.231.73A5.049,5.049,0,0,0,2777.6,342.453Zm-30.69.488c.125,0,.25.007.374,0a.391.391,0,0,0,.414-.374.76.76,0,0,0-.369-.8.7.7,0,0,0-.768-.02.754.754,0,0,0-.4.779c.027.279.149.4.441.414.1.007.208,0,.311,0Zm-7.126-1.092a.661.661,0,0,0-.81.083.891.891,0,0,0-.212.37.418.418,0,0,0,.13.475,3.121,3.121,0,0,0,1.126-.011C2740.145,342.26,2740.083,342.042,2739.784,341.849Zm179-22.363c.023-.008.029-.069.058-.147a1.141,1.141,0,0,0-1.9.656A6.8,6.8,0,0,0,2918.785,319.486Zm-133.749,22.58a.9.9,0,0,0-.924-.648,1.017,1.017,0,0,0-.623.258c-.119.109-.258.217-.208.413A4.552,4.552,0,0,0,2785.036,342.066ZM2680,334.5a.567.567,0,1,0-.066,1.131.566.566,0,0,0,.606-.565A.554.554,0,0,0,2680,334.5Zm275.51-30.113a.962.962,0,0,0-.722.116.714.714,0,0,0-.332.952,10.624,10.624,0,0,0,1.489-.733A.472.472,0,0,0,2955.512,304.39Zm-304.871,23.018a.554.554,0,0,0-.949-.235.181.181,0,0,0,.035.312c.289.086.546.316.918.211A.973.973,0,0,0,2650.641,327.408Zm81.993,14.97a.4.4,0,0,0-.217-.452.747.747,0,0,0-.4-.124.782.782,0,0,0-.383.181.326.326,0,0,0-.128.4A3.392,3.392,0,0,0,2732.635,342.378Zm58.2-.619a4.627,4.627,0,0,1,.516-.111c.184-.017.371,0,.706,0C2791.514,341.282,2791.226,341.324,2790.839,341.759ZM2939.9,312c.149-.024.3-.041.376-.221C2939.96,311.8,2939.96,311.8,2939.9,312Zm-215.277,29.956c-.017-.009-.036-.029-.049-.026a.442.442,0,0,0-.087.039l.051.028Z" transform="translate(-240.789 -1459.908)" opacity="0.5" fill="url(#linear-gradient)"/>
    <rect id="Rectngulo_2804" data-name="Rectngulo 2804" width="442.438" height="4.393" rx="2.196" transform="translate(2319.386 -1182.054)" fill="#2e5b9a"/>
    <g id="Grupo_13653" data-name="Grupo 13653" transform="translate(2548.557 -1394.886)">
      <path id="Rectngulo_2805" data-name="Rectngulo 2805" d="M10.7,0H41.219a10.7,10.7,0,0,1,10.7,10.7v0a10.7,10.7,0,0,1-10.7,10.7H10.7A10.7,10.7,0,0,1,0,10.7v0A10.7,10.7,0,0,1,10.7,0Z" fill="#9ec8ff"/>
      <path id="Trazado_13298" data-name="Trazado 13298" d="M4121.359-1151.575v11.8l13.6-13.6S4121.636-1151.575,4121.359-1151.575Z" transform="translate(-4115.088 1169.741)" fill="#9ec8ff"/>
      <rect id="Rectngulo_2806" data-name="Rectngulo 2806" width="46.546" height="17.152" rx="8.576" transform="translate(2.685 2.121)" fill="#fff"/>
      <path id="Trazado_13299" data-name="Trazado 13299" d="M4141.98-1236.727h-21.025a.925.925,0,0,1-.922-.922.925.925,0,0,1,.922-.922h21.025a.925.925,0,0,1,.922.922A.925.925,0,0,1,4141.98-1236.727Z" transform="translate(-4113.947 1243.089)" fill="#9ec8ff"/>
      <rect id="Rectngulo_2807" data-name="Rectngulo 2807" width="40.021" height="1.036" rx="0.518" transform="translate(6.086 8.853)" fill="#9ec8ff"/>
      <path id="Rectngulo_2808" data-name="Rectngulo 2808" d="M.518,0H39.5a.518.518,0,0,1,.518.518v0a.518.518,0,0,1-.518.518H.518A.518.518,0,0,1,0,.518v0A.518.518,0,0,1,.518,0Z" transform="translate(6.086 10.86)" fill="#9ec8ff"/>
      <g id="Grupo_13652" data-name="Grupo 13652" transform="translate(35.769 16.506)">
        <rect id="Rectngulo_2809" data-name="Rectngulo 2809" width="2.254" height="2.029" rx="1.014" fill="#9ec8ff"/>
        <rect id="Rectngulo_2810" data-name="Rectngulo 2810" width="2.254" height="2.029" rx="1.014" transform="translate(4.098)" fill="#9ec8ff"/>
        <rect id="Rectngulo_2811" data-name="Rectngulo 2811" width="2.254" height="2.029" rx="1.014" transform="translate(8.197)" fill="#9ec8ff"/>
      </g>
    </g>
    <g id="Grupo_13654" data-name="Grupo 13654" transform="translate(2408.535 -1223.799)">
      <path id="Trazado_13300" data-name="Trazado 13300" d="M3149.846,229.23H3069.5a5.156,5.156,0,0,1,5.156-5.156h75.187Z" transform="translate(-3069.503 -187.217)" fill="#a8ceff"/>
      <path id="Trazado_13301" data-name="Trazado 13301" d="M3382.227,1.083h-42.914l18.224-40.092a3.277,3.277,0,0,1,2.983-1.921h38.817a1.279,1.279,0,0,1,1.165,1.809Z" transform="translate(-3301.788 40.93)" fill="#a8ceff"/>
      <path id="Trazado_13302" data-name="Trazado 13302" d="M3420.28-40.93h-35.433a3.277,3.277,0,0,0-2.984,1.921L3363.64,1.083h39.531l18.274-40.2A1.28,1.28,0,0,0,3420.28-40.93Z" transform="translate(-3322.731 40.93)" fill="#75a1de"/>
      <path id="Trazado_13303" data-name="Trazado 13303" d="M3584.069,75.589c-1.5,3.113-3.939,5.048-5.444,4.322s-1.506-3.838,0-6.951,3.94-5.048,5.444-4.322S3585.571,72.476,3584.069,75.589Z" transform="translate(-3506.844 -53.268)" fill="#6695d6"/>
    </g>
    <g id="Grupo_13655" data-name="Grupo 13655" transform="translate(2362.503 -1304.489)">
      <path id="Trazado_13304" data-name="Trazado 13304" d="M2983.182-488.4s-3.646,18.613-7.676,21.875,9.274,18.991,13.879,14.961.321-12.85.321-12.85-2.495-1.535,1.727-11.321-7.143-17.078-7.143-17.078Z" transform="translate(-2941.902 510.658)" fill="#f09959"/>
      <path id="Trazado_13305" data-name="Trazado 13305" d="M3028.073-492.816l-1.108,4.413s-.507,2.59-1.353,6.006a33.275,33.275,0,0,0,7.154,15.169c.077-1.695.659-4.36,2.449-8.51C3039.437-485.524,3028.073-492.816,3028.073-492.816Z" transform="translate(-2985.685 510.658)" fill="#e38540"/>
      <path id="Trazado_13306" data-name="Trazado 13306" d="M3064.548-532.153c-2.45,6.757-8.437,12.181-12.239,10.929-6.211-2.045-10.732-6.9-9.664-17.63,1.258-12.638,10.982-14.088,16.694-12.473S3067.259-539.629,3064.548-532.153Z" transform="translate(-3000.214 561.493)" fill="#f09959"/>
      <path id="Trazado_13307" data-name="Trazado 13307" d="M2938.392-304.006l-5.875,2.3,9.26,11.867-2.643,4.729a37.388,37.388,0,0,1,12.435,21.032,124.088,124.088,0,0,1,2.583,25.693s.712-28.136-.692-33.513C2950.737-282.328,2938.392-304.006,2938.392-304.006Z" transform="translate(-2905.537 348.108)" fill="#d54a41"/>
      <path id="Trazado_13308" data-name="Trazado 13308" d="M3082.74-287.462s7.33,18.82,8.493,24.116,1.4,31.178,1.4,31.178,3.371-22.565,2.4-29.241-2.364-12.709-2.364-12.709l-4.45-3.286s-.842-8.95-1.315-9.066S3082.74-287.462,3082.74-287.462Z" transform="translate(-3034.867 333.865)" fill="#d54a41"/>
      <path id="Trazado_13309" data-name="Trazado 13309" d="M3016.061,177.355c14.259-4.321,12.531-6.481,17.716-4.033s11.682,4.111,8.642,4.9-7.634-1.728-7.634-1.728.72,3.889-1.872,5.041-14.1,1.571-20.519-.223S3016.061,177.355,3016.061,177.355Z" transform="translate(-2972.467 -61.95)" fill="#f09959"/>
      <path id="Trazado_13310" data-name="Trazado 13310" d="M3025.716,203.861h2.838l-1.419,8.062s-5.591-.83-5.174-1.386S3025.716,203.861,3025.716,203.861Z" transform="translate(-2982.521 -89.125)" fill="#a2dff2"/>
      <path id="Trazado_13311" data-name="Trazado 13311" d="M2754.742-257.139c-5.563,9.736-7.328,15.045-11.863,33.265s-6.357,26.51-1.35,28.9c4.143,1.981,34.31,11.028,37.969,9.914,1.669.095,4.231-8.524,4.231-8.524l-27.457-12.239s7.947-18.971,9.318-31.432-4.729-19.888-7.789-19.888Z" transform="translate(-2738.53 307.759)" fill="#f37168"/>
      <path id="Trazado_13312" data-name="Trazado 13312" d="M3019.792-477.236c-1.343,4.217-.767,5.078-2.626,5.472s-3.558-1.452-4.108-4.044.512-5.013,2.372-5.408S3020.6-479.761,3019.792-477.236Z" transform="translate(-2974.751 500.717)" fill="#f09959"/>
      <path id="Trazado_13313" data-name="Trazado 13313" d="M3023.271-574.259c-7.277,12.934-21.734,11.035-30.519,6.584-7.162-3.628,20.433-17.372,20.433-17.372Z" transform="translate(-2956.373 590.061)" fill="#303c60"/>
      <path id="Trazado_13314" data-name="Trazado 13314" d="M2922.855-616.087c-2.7-8.136-13.75-6.212-18.759,4.612s2.656,18.064,7.3,15.412S2922.855-616.087,2922.855-616.087Z" transform="translate(-2879.661 621.101)" fill="#303c60"/>
    </g>
    <g id="Grupo_13658" data-name="Grupo 13658" transform="translate(2434.347 -1395.547)">
      <path id="Trazado_13315" data-name="Trazado 13315" d="M3382.184-1193.921a64.432,64.432,0,0,0,1.937-9.9l-10.216-4.6q.077-1.452.079-2.924a54.587,54.587,0,0,0-.591-8.009l9.74-5.543a64.205,64.205,0,0,0-2.868-9.667l-11.185.676a54.092,54.092,0,0,0-5.548-9.438l6.046-9.43a65.128,65.128,0,0,0-7.041-7.227l-9.585,5.794a54.161,54.161,0,0,0-9.287-5.794l.971-11.165a64.225,64.225,0,0,0-9.587-3.124l-5.8,9.589a54.488,54.488,0,0,0-9.425-.819q-.749,0-1.492.021l-4.326-10.333a64.546,64.546,0,0,0-9.946,1.674l-.677,11.182a53.848,53.848,0,0,0-10.043,4.367l-8.633-7.139a64.984,64.984,0,0,0-8.018,6.123l4.6,10.216a54.386,54.386,0,0,0-6.866,8.52l-10.967-2.311a64.381,64.381,0,0,0-4.265,9.137l8.82,6.911a53.881,53.881,0,0,0-2.1,10.744l-10.778,3.049c-.02.663-.033,1.328-.033,2a65.345,65.345,0,0,0,.5,8.081l11.018,2.02a53.743,53.743,0,0,0,3.115,10.5l-8.129,7.711a64.649,64.649,0,0,0,5.112,8.694l10.7-3.333a54.486,54.486,0,0,0,7.635,7.838l-3.615,10.606a64.724,64.724,0,0,0,8.557,5.34l7.922-7.921a53.735,53.735,0,0,0,10.412,3.394l1.728,11.069a65.243,65.243,0,0,0,9.778.735c.094,0,.188,0,.283,0l3.333-10.694a54.015,54.015,0,0,0,10.794-1.819l6.676,9a64.338,64.338,0,0,0,9.246-4.022l-2.019-11.023a54.376,54.376,0,0,0,8.7-6.641l10.091,4.866a65.017,65.017,0,0,0,6.331-7.855l-6.907-8.817a53.89,53.89,0,0,0,4.631-9.923Zm-62.357,9.216a26.636,26.636,0,0,1-26.636-26.636,26.636,26.636,0,0,1,26.636-26.636,26.636,26.636,0,0,1,26.636,26.636A26.636,26.636,0,0,1,3319.827-1184.705Z" transform="translate(-3255.095 1275.81)" fill="#9ec8ff" opacity="0.5"/>
      <g id="Grupo_13656" data-name="Grupo 13656" transform="translate(22.321 85.738)">
        <path id="Trazado_13316" data-name="Trazado 13316" d="M3420.277-651.591a.694.694,0,0,1-.559-.281,48.416,48.416,0,0,1-4.051-6.459.7.7,0,0,1,.295-.938.7.7,0,0,1,.938.295,47,47,0,0,0,3.934,6.272.7.7,0,0,1-.143.973A.691.691,0,0,1,3420.277-651.591Z" transform="translate(-3415.588 659.348)" fill="#fff"/>
      </g>
      <g id="Grupo_13657" data-name="Grupo 13657" transform="translate(35.595 101.522)">
        <path id="Trazado_13317" data-name="Trazado 13317" d="M3534.38-535.086a.729.729,0,0,1-.091-.006,48.12,48.12,0,0,1-22.989-9.518.7.7,0,0,1-.128-.975.7.7,0,0,1,.975-.129,46.729,46.729,0,0,0,22.323,9.243.7.7,0,0,1,.6.78A.7.7,0,0,1,3534.38-535.086Z" transform="translate(-3511.028 545.857)" fill="#fff"/>
      </g>
    </g>
    <g id="Grupo_13673" data-name="Grupo 13673" transform="translate(2499.978 -1363.239)">
      <rect id="Rectngulo_2812" data-name="Rectngulo 2812" width="126.44" height="70.149" transform="translate(0 0)" fill="#9ec8ff"/>
      <rect id="Rectngulo_2813" data-name="Rectngulo 2813" width="121.433" height="63.89" transform="translate(1.391 1.53)" fill="#fff"/>
      <g id="Grupo_13670" data-name="Grupo 13670" transform="translate(3.033 2.155)" opacity="0.5">
        <g id="Grupo_13659" data-name="Grupo 13659">
          <path id="Trazado_13318" data-name="Trazado 13318" d="M3864.236-969.773H3749.072a.278.278,0,0,1-.278-.278v-57.695a.278.278,0,0,1,.278-.278h115.163a.278.278,0,0,1,.278.278v57.695A.278.278,0,0,1,3864.236-969.773Zm-114.885-.556h114.607v-57.138H3749.351Z" transform="translate(-3748.794 1028.024)" fill="#9ec8ff"/>
        </g>
        <g id="Grupo_13660" data-name="Grupo 13660" transform="translate(0 48.079)">
          <path id="Trazado_13319" data-name="Trazado 13319" d="M3864.236-681.776H3749.072a.278.278,0,0,1-.278-.278.278.278,0,0,1,.278-.278h115.163a.278.278,0,0,1,.278.278A.278.278,0,0,1,3864.236-681.776Z" transform="translate(-3748.794 682.332)" fill="#9ec8ff"/>
        </g>
        <g id="Grupo_13661" data-name="Grupo 13661" transform="translate(0 38.463)">
          <path id="Trazado_13320" data-name="Trazado 13320" d="M3864.236-750.914H3749.072a.278.278,0,0,1-.278-.278.278.278,0,0,1,.278-.278h115.163a.278.278,0,0,1,.278.278A.278.278,0,0,1,3864.236-750.914Z" transform="translate(-3748.794 751.47)" fill="#9ec8ff"/>
        </g>
        <g id="Grupo_13662" data-name="Grupo 13662" transform="translate(0 28.847)">
          <path id="Trazado_13321" data-name="Trazado 13321" d="M3864.236-820.053H3749.072a.278.278,0,0,1-.278-.278.278.278,0,0,1,.278-.278h115.163a.278.278,0,0,1,.278.278A.278.278,0,0,1,3864.236-820.053Z" transform="translate(-3748.794 820.609)" fill="#9ec8ff"/>
        </g>
        <g id="Grupo_13663" data-name="Grupo 13663" transform="translate(0 19.231)">
          <path id="Trazado_13322" data-name="Trazado 13322" d="M3864.236-889.192H3749.072a.278.278,0,0,1-.278-.278.278.278,0,0,1,.278-.278h115.163a.278.278,0,0,1,.278.278A.278.278,0,0,1,3864.236-889.192Z" transform="translate(-3748.794 889.748)" fill="#9ec8ff"/>
        </g>
        <g id="Grupo_13664" data-name="Grupo 13664" transform="translate(0 9.616)">
          <path id="Trazado_13323" data-name="Trazado 13323" d="M3864.236-958.33H3749.072a.278.278,0,0,1-.278-.278.278.278,0,0,1,.278-.278h115.163a.278.278,0,0,1,.278.278A.278.278,0,0,1,3864.236-958.33Z" transform="translate(-3748.794 958.886)" fill="#9ec8ff"/>
        </g>
        <g id="Grupo_13665" data-name="Grupo 13665" transform="translate(95.969)">
          <path id="Trazado_13324" data-name="Trazado 13324" d="M4439.1-969.773a.278.278,0,0,1-.278-.278v-57.695a.278.278,0,0,1,.278-.278.278.278,0,0,1,.278.278v57.695A.278.278,0,0,1,4439.1-969.773Z" transform="translate(-4438.823 1028.024)" fill="#9ec8ff"/>
        </g>
        <g id="Grupo_13666" data-name="Grupo 13666" transform="translate(76.776)">
          <path id="Trazado_13325" data-name="Trazado 13325" d="M4301.1-969.773a.278.278,0,0,1-.278-.278v-57.695a.278.278,0,0,1,.278-.278.278.278,0,0,1,.278.278v57.695A.279.279,0,0,1,4301.1-969.773Z" transform="translate(-4300.817 1028.024)" fill="#9ec8ff"/>
        </g>
        <g id="Grupo_13667" data-name="Grupo 13667" transform="translate(57.582)">
          <path id="Trazado_13326" data-name="Trazado 13326" d="M4163.09-969.773a.278.278,0,0,1-.278-.278v-57.695a.278.278,0,0,1,.278-.278.278.278,0,0,1,.278.278v57.695A.278.278,0,0,1,4163.09-969.773Z" transform="translate(-4162.812 1028.024)" fill="#9ec8ff"/>
        </g>
        <g id="Grupo_13668" data-name="Grupo 13668" transform="translate(38.388)">
          <path id="Trazado_13327" data-name="Trazado 13327" d="M4025.084-969.773a.278.278,0,0,1-.278-.278v-57.695a.278.278,0,0,1,.278-.278.278.278,0,0,1,.278.278v57.695A.278.278,0,0,1,4025.084-969.773Z" transform="translate(-4024.806 1028.024)" fill="#9ec8ff"/>
        </g>
        <g id="Grupo_13669" data-name="Grupo 13669" transform="translate(19.194)">
          <path id="Trazado_13328" data-name="Trazado 13328" d="M3887.078-969.773a.278.278,0,0,1-.278-.278v-57.695a.278.278,0,0,1,.278-.278.278.278,0,0,1,.278.278v57.695A.278.278,0,0,1,3887.078-969.773Z" transform="translate(-3886.8 1028.024)" fill="#9ec8ff"/>
        </g>
      </g>
      <g id="Grupo_13671" data-name="Grupo 13671" transform="translate(2.755 1.876)">
        <path id="Trazado_13329" data-name="Trazado 13329" d="M3747.35-971.217a.556.556,0,0,1-.5-.307.556.556,0,0,1,.248-.747l19.118-9.578,9.859-9.487,9.157-19.141a.556.556,0,0,1,.132-.175l10.409-9.274a.558.558,0,0,1,.483-.129.557.557,0,0,1,.392.31l8.776,18.871,10.427,18.526,7.852-9.021a.556.556,0,0,1,.4-.191.543.543,0,0,1,.413.164l8.935,8.976,9.337-27.992a.561.561,0,0,1,.134-.217l19.194-19.232a.556.556,0,0,1,.787,0,.556.556,0,0,1,0,.787l-19.1,19.139-9.581,28.723a.557.557,0,0,1-.4.366.556.556,0,0,1-.521-.149l-9.149-9.192-7.977,9.165a.558.558,0,0,1-.476.188.556.556,0,0,1-.428-.281l-10.824-19.232c-.007-.013-.013-.025-.02-.038l-8.469-18.211-9.767,8.7-9.152,19.131a.56.56,0,0,1-.116.161l-9.994,9.616a.545.545,0,0,1-.136.1l-19.194,9.616A.553.553,0,0,1,3747.35-971.217Z" transform="translate(-3746.793 1030.024)" fill="#f39892"/>
      </g>
      <g id="Grupo_13672" data-name="Grupo 13672" transform="translate(2.755 1.876)">
        <path id="Trazado_13330" data-name="Trazado 13330" d="M3747.35-971.218a.554.554,0,0,1-.388-.158.556.556,0,0,1-.01-.787l28.144-28.847a.556.556,0,0,1,.779-.017l9.85,9.246,18.813-18.85a.556.556,0,0,1,.78-.008l9.588,9.229,8.818-9.213a.557.557,0,0,1,.4-.172.565.565,0,0,1,.4.163l18.648,18.684,18.848-37.771a.557.557,0,0,1,.746-.249.557.557,0,0,1,.25.746l-19.194,38.463a.557.557,0,0,1-.409.3.554.554,0,0,1-.483-.156l-18.792-18.829-8.811,9.2a.555.555,0,0,1-.39.171.557.557,0,0,1-.4-.155l-9.6-9.237-18.808,18.845a.556.556,0,0,1-.775.013l-9.846-9.242-27.763,28.457A.555.555,0,0,1,3747.35-971.218Z" transform="translate(-3746.793 1030.026)" fill="#9ec8ff"/>
      </g>
    </g>
    <g id="Grupo_13676" data-name="Grupo 13676" transform="translate(2450.459 -1391.063)">
      <path id="Rectngulo_2814" data-name="Rectngulo 2814" d="M6.562,0H36.867a6.562,6.562,0,0,1,6.562,6.562V20.031A43.429,43.429,0,0,1,0,63.46H0a0,0,0,0,1,0,0V6.562A6.562,6.562,0,0,1,6.562,0Z" transform="translate(19.396 0)" fill="#9ec8ff"/>
      <path id="Rectngulo_2815" data-name="Rectngulo 2815" d="M6.267,0H35.211a6.267,6.267,0,0,1,6.267,6.267V19.151A41.477,41.477,0,0,1,0,60.629H0a0,0,0,0,1,0,0V6.267A6.267,6.267,0,0,1,6.267,0Z" transform="translate(19.885 1.074)" fill="#fff"/>
      <path id="Trazado_13331" data-name="Trazado 13331" d="M3415.235-905.8V-906.9a1.467,1.467,0,0,0-1.349-1.562h-41.6a1.467,1.467,0,0,0-1.349,1.562v1.093c0,7.751,5.428,14.033,12.124,14.033h42.5C3418.87-891.771,3415.144-897.347,3415.235-905.8Z" transform="translate(-3370.941 955.067)" fill="#9ec8ff"/>
      <path id="Trazado_13332" data-name="Trazado 13332" d="M3425.317-894.854v-.885a1.263,1.263,0,0,0-1.264-1.264H3385.1a1.263,1.263,0,0,0-1.263,1.264v.885a11.353,11.353,0,0,0,11.353,11.353h41.477C3430.4-883.5,3425.317-886.535,3425.317-894.854Z" transform="translate(-3382.046 945.203)" fill="#fff"/>
      <g id="Grupo_13674" data-name="Grupo 13674" transform="translate(25.682 6.872)">
        <path id="Trazado_13333" data-name="Trazado 13333" d="M3586.922-1174.663H3557.3a1.7,1.7,0,0,1-1.7-1.7v-16.1a1.7,1.7,0,0,1,1.7-1.7h29.627a1.7,1.7,0,0,1,1.7,1.7v16.1A1.7,1.7,0,0,1,3586.922-1174.663ZM3557.3-1193.6a1.145,1.145,0,0,0-1.144,1.144v16.1a1.145,1.145,0,0,0,1.144,1.144h29.627a1.145,1.145,0,0,0,1.144-1.144v-16.1a1.145,1.145,0,0,0-1.144-1.144Z" transform="translate(-3555.595 1194.159)" fill="#9ec8ff"/>
      </g>
      <path id="Trazado_13334" data-name="Trazado 13334" d="M3503.238-1008.217h-32.566a.843.843,0,0,1-.841-.841.844.844,0,0,1,.841-.841h32.566a.844.844,0,0,1,.841.841A.844.844,0,0,1,3503.238-1008.217Z" transform="translate(-3456.077 1042.398)" fill="#9ec8ff"/>
      <path id="Trazado_13335" data-name="Trazado 13335" d="M3503.238-986.146h-32.566a.844.844,0,0,1-.841-.841.844.844,0,0,1,.841-.841h32.566a.844.844,0,0,1,.841.841A.844.844,0,0,1,3503.238-986.146Z" transform="translate(-3456.077 1023.398)" fill="#9ec8ff"/>
      <path id="Trazado_13336" data-name="Trazado 13336" d="M3503.238-964.845h-32.566a.844.844,0,0,1-.841-.841.844.844,0,0,1,.841-.841h32.566a.844.844,0,0,1,.841.841A.844.844,0,0,1,3503.238-964.845Z" transform="translate(-3456.077 1005.058)" fill="#9ec8ff"/>
      <g id="Grupo_13675" data-name="Grupo 13675" transform="translate(47.417 9.433)">
        <rect id="Rectngulo_2816" data-name="Rectngulo 2816" width="1.921" height="1.729" rx="0.864" fill="#9ec8ff"/>
        <rect id="Rectngulo_2817" data-name="Rectngulo 2817" width="1.921" height="1.729" rx="0.864" transform="translate(3.492)" fill="#9ec8ff"/>
        <rect id="Rectngulo_2818" data-name="Rectngulo 2818" width="1.921" height="1.729" rx="0.864" transform="translate(6.984)" fill="#9ec8ff"/>
      </g>
      <rect id="Rectngulo_2819" data-name="Rectngulo 2819" width="4.385" height="7.239" transform="translate(28.923 16.62)" fill="#9ec8ff"/>
      <rect id="Rectngulo_2820" data-name="Rectngulo 2820" width="4.385" height="6.636" transform="translate(41.01 17.223)" fill="#9ec8ff"/>
      <rect id="Rectngulo_2821" data-name="Rectngulo 2821" width="4.385" height="9.599" transform="translate(48.002 14.261)" fill="#9ec8ff"/>
      <rect id="Rectngulo_2822" data-name="Rectngulo 2822" width="4.385" height="4.385" transform="translate(34.848 19.475)" fill="#9ec8ff"/>
    </g>
    <g id="Grupo_13678" data-name="Grupo 13678" transform="translate(2725.966 -1337)">
      <path id="Trazado_13337" data-name="Trazado 13337" d="M5367.47-823.533h15.61a15.684,15.684,0,0,1-15.61,15.61,15.684,15.684,0,0,1-15.61-15.61,15.684,15.684,0,0,1,15.61-15.61Z" transform="translate(-5351.86 841.329)" fill="#9ec8ff"/>
      <g id="Grupo_13677" data-name="Grupo 13677" transform="translate(2.614 0)">
        <path id="Trazado_13338" data-name="Trazado 13338" d="M5498.5-839.248a15.61,15.61,0,0,0-15.61-15.61v15.61Z" transform="translate(-5467.285 854.858)" fill="#f39892"/>
        <path id="Trazado_13339" data-name="Trazado 13339" d="M5370.658-742.622a15.61,15.61,0,0,0,15.61,15.61A15.685,15.685,0,0,1,5370.658-742.622Z" transform="translate(-5370.658 758.232)" fill="#f39892"/>
        <path id="Trazado_13340" data-name="Trazado 13340" d="M5386.269-854.858a15.61,15.61,0,0,0-15.61,15.61A15.685,15.685,0,0,1,5386.269-854.858Z" transform="translate(-5370.658 854.858)" fill="#f39892"/>
        <path id="Trazado_13341" data-name="Trazado 13341" d="M5482.9-727.012a15.61,15.61,0,0,0,15.61-15.61A15.684,15.684,0,0,1,5482.9-727.012Z" transform="translate(-5467.285 758.232)" fill="#f39892"/>
      </g>
    </g>
    <circle id="Elipse_640" data-name="Elipse 640" cx="1.384" cy="1.384" r="1.384" transform="translate(2550.421 -1351.878) rotate(-13.282)" fill="#f39892"/>
    <circle id="Elipse_641" data-name="Elipse 641" cx="1.384" cy="1.384" r="1.384" transform="translate(2529.837 -1332.988) rotate(-13.282)" fill="#9ec8ff"/>
    <circle id="Elipse_642" data-name="Elipse 642" cx="1.384" cy="1.384" r="1.384" transform="translate(2559.487 -1342.959)" fill="#9ec8ff"/>
    <circle id="Elipse_643" data-name="Elipse 643" cx="1.384" cy="1.384" r="1.384" transform="translate(2578.681 -1342.959)" fill="#9ec8ff"/>
    <circle id="Elipse_644" data-name="Elipse 644" cx="1.384" cy="1.384" r="1.384" transform="translate(2597.875 -1342.959)" fill="#f39892"/>
    <g id="Grupo_13680" data-name="Grupo 13680" transform="translate(2449.031 -1338.329)">
      <circle id="Elipse_645" data-name="Elipse 645" cx="7.469" cy="7.469" r="7.469" transform="translate(0 10.563) rotate(-45)" fill="#9cd499"/>
      <g id="Grupo_13679" data-name="Grupo 13679" transform="translate(7.376 8.095)">
        <path id="Trazado_13342" data-name="Trazado 13342" d="M3416.152-801.135h-.016a.417.417,0,0,1-.3-.141l-2.028-2.305a.417.417,0,0,1,.038-.589.417.417,0,0,1,.588.038l1.738,1.975,4.02-3.934a.417.417,0,0,1,.59.006.417.417,0,0,1-.006.59l-4.334,4.242A.419.419,0,0,1,3416.152-801.135Z" transform="translate(-3413.706 806.211)" fill="#fff"/>
      </g>
    </g>
    <g id="Grupo_13681" data-name="Grupo 13681" transform="translate(2354.065 -1380.997)">
      <rect id="Rectngulo_2823" data-name="Rectngulo 2823" width="4.972" height="27.122" transform="translate(0 8.257)" fill="#9ec8ff"/>
      <rect id="Rectngulo_2824" data-name="Rectngulo 2824" width="4.972" height="19.232" transform="translate(21.07 16.148)" fill="#9ec8ff"/>
      <rect id="Rectngulo_2825" data-name="Rectngulo 2825" width="4.972" height="27.122" transform="translate(31.604 8.257)" fill="#9ec8ff"/>
      <rect id="Rectngulo_2826" data-name="Rectngulo 2826" width="4.972" height="9.616" transform="translate(42.139 25.763)" fill="#9ec8ff"/>
      <rect id="Rectngulo_2827" data-name="Rectngulo 2827" width="4.972" height="35.379" transform="translate(10.535 0)" fill="#9ec8ff"/>
      <rect id="Rectngulo_2828" data-name="Rectngulo 2828" width="4.972" height="19.232" transform="translate(52.709 16.148)" fill="#9ec8ff"/>
    </g>
    <g id="Grupo_13682" data-name="Grupo 13682" transform="translate(2659.968 -1389.557)">
      <rect id="Rectngulo_2829" data-name="Rectngulo 2829" width="4.972" height="14.385" transform="translate(0 19.273)" fill="#9ec8ff"/>
      <rect id="Rectngulo_2830" data-name="Rectngulo 2830" width="4.972" height="9.705" transform="translate(63.724 23.952)" fill="#9ec8ff"/>
      <rect id="Rectngulo_2831" data-name="Rectngulo 2831" width="4.971" height="33.658" transform="translate(21.07 0)" fill="#9ec8ff"/>
      <rect id="Rectngulo_2832" data-name="Rectngulo 2832" width="4.972" height="15.129" transform="translate(31.604 18.529)" fill="#9ec8ff"/>
      <rect id="Rectngulo_2833" data-name="Rectngulo 2833" width="4.972" height="19.411" transform="translate(42.139 14.247)" fill="#9ec8ff"/>
      <rect id="Rectngulo_2834" data-name="Rectngulo 2834" width="4.972" height="23.883" transform="translate(10.535 9.775)" fill="#9ec8ff"/>
      <rect id="Rectngulo_2835" data-name="Rectngulo 2835" width="4.972" height="29.416" transform="translate(52.709 4.242)" fill="#9ec8ff"/>
    </g>
    <g id="Grupo_13684" data-name="Grupo 13684" transform="translate(2318.428 -1318.969)">
      <g id="Grupo_13683" data-name="Grupo 13683" transform="translate(0 0)" clip-path="url(#clip-path)">
        <path id="Trazado_13343" data-name="Trazado 13343" d="M2561.72-572.044l-17.879-10.933-3.234,20.707A20.981,20.981,0,0,0,2561.72-572.044Z" transform="translate(-2524.059 602.759)" fill="#a2dff2"/>
        <path id="Trazado_13344" data-name="Trazado 13344" d="M2581.759-633.382c.048-.079.111-.187.109-.183a20.958,20.958,0,0,0,.464-20.631c-6.327,3.315-2.559,1.3-18.471,9.905C2581.77-633.339,2578.989-635.028,2581.759-633.382Z" transform="translate(-2544.079 664.073)" fill="#9cd499"/>
        <path id="Trazado_13345" data-name="Trazado 13345" d="M2422.545-719.808l19.655,7.242,18.437-9.97C2452.012-738.485,2428.8-736.572,2422.545-719.808Z" transform="translate(-2422.417 732.348)" fill="#9ec8ff"/>
        <path id="Trazado_13346" data-name="Trazado 13346" d="M2430.808-607.1l3.234-20.707-19.654-7.242A21,21,0,0,0,2430.808-607.1Z" transform="translate(-2414.26 647.588)" fill="#f39892"/>
        <path id="Trazado_13347" data-name="Trazado 13347" d="M2448.62-706.176a21.737,21.737,0,0,0,.542-20.379l.011-.006-.331-.612-.021-.037-.271-.5-.01.005a21.4,21.4,0,0,0-8.639-8.38,21.658,21.658,0,0,0-11.521-2.362A21.519,21.519,0,0,0,2409.742-725l-.011,0-.242.649-.244.654.011,0a21.384,21.384,0,0,0,1.833,17.668,21.673,21.673,0,0,0,14.679,10.433l0,.012.685.108.688.109,0-.012a21.566,21.566,0,0,0,2.67.167,21.534,21.534,0,0,0,9.1-2.025,21.628,21.628,0,0,0,9-7.783l.014.008.136-.223s.222-.364.222-.364c.034-.056.075-.125.1-.165l.015-.024.011-.019.22-.36Zm-2.1-18.906,1.445-.756a20.344,20.344,0,0,1-.522,18.918l-.133-.078c-.73-.433-1.048-.621-2.5-1.509l-13.622-8.33,11.308-6.115C2444.156-723.844,2444.837-724.2,2446.523-725.081Zm-35.477.56a20.143,20.143,0,0,1,17.432-12.54,19.949,19.949,0,0,1,18.8,9.944l-5.446,2.945c-1.124.6-2.7,1.455-5.327,2.879l-6.523,3.529-.168.091-.548-.335-.03.191-8.611-3.173Zm1.243,17.789a20,20,0,0,1-1.729-16.485l12.947,4.77,5.512,2.031-3.037,19.444A20.289,20.289,0,0,1,2412.29-706.733Zm15.067,9.977,2.964-18.979,7.714,4.718c3.11,1.9,4.889,2.991,6.01,3.674l2.663,1.628A20.182,20.182,0,0,1,2427.356-696.756Z" transform="translate(-2410.012 736.655)" fill="#e7f3fe"/>
      </g>
    </g>
    <path id="Trazado_13349" data-name="Trazado 13349" d="M2396.122-297.765a6.241,6.241,0,0,1-6.241,6.241,6.241,6.241,0,0,1-6.24-6.241,6.241,6.241,0,0,1,6.24-6.241A6.241,6.241,0,0,1,2396.122-297.765Z" transform="translate(-70.496 -956.382)" fill="#9ec8ff"/>
    <path id="Trazado_13350" data-name="Trazado 13350" d="M2422.773-276.518a3.131,3.131,0,0,1-3.131,3.131,3.131,3.131,0,0,1-3.131-3.131,3.131,3.131,0,0,1,3.131-3.131A3.131,3.131,0,0,1,2422.773-276.518Z" transform="translate(-98.795 -977.351)" fill="#fff"/>
    <path id="Rectngulo_2836" data-name="Rectngulo 2836" d="M11.867,0h0A11.867,11.867,0,0,1,23.734,11.867v0A11.867,11.867,0,0,1,11.867,23.734h0A11.867,11.867,0,0,1,0,11.867v0A11.867,11.867,0,0,1,11.867,0Z" transform="translate(2727.3 -1277.965)" fill="#9ec8ff"/>
    <g id="Grupo_13685" data-name="Grupo 13685" transform="translate(2733.823 -1275.028)">
      <path id="Trazado_13351" data-name="Trazado 13351" d="M5428.662-384.144h-15.493a4.821,4.821,0,0,1-4.816-4.816v-15.494a4.821,4.821,0,0,1,4.816-4.816h15.493a4.821,4.821,0,0,1,4.816,4.816v15.494A4.821,4.821,0,0,1,5428.662-384.144Zm-15.493-23.734a3.429,3.429,0,0,0-3.425,3.425v15.494a3.429,3.429,0,0,0,3.425,3.425h15.493a3.429,3.429,0,0,0,3.425-3.425v-15.494a3.429,3.429,0,0,0-3.425-3.425Z" transform="translate(-5408.353 409.269)" fill="#fff"/>
    </g>
    <path id="Trazado_13352" data-name="Trazado 13352" d="M3513.736-323.25l-3.954-4.56a1.674,1.674,0,0,1,.168-2.354l4.56-3.954a1.674,1.674,0,0,1,2.354.168l3.954,4.56a1.674,1.674,0,0,1-.168,2.354l-4.56,3.954A1.674,1.674,0,0,1,3513.736-323.25Z" transform="translate(-1039.663 -930.108)" fill="#9ec8ff"/>
    <path id="Trazado_13353" data-name="Trazado 13353" d="M3668.237-247.648a3.492,3.492,0,0,1-3.492,3.492,3.492,3.492,0,0,1-3.492-3.492,3.492,3.492,0,0,1,3.492-3.492A3.492,3.492,0,0,1,3668.237-247.648Z" transform="translate(-1170.417 -1001.895)" fill="#9ec8ff"/>
    <path id="Trazado_13354" data-name="Trazado 13354" d="M5816.8-325.348a3.481,3.481,0,0,1-3.481,3.481,3.481,3.481,0,0,1-3.48-3.481,3.481,3.481,0,0,1,3.48-3.481A3.481,3.481,0,0,1,5816.8-325.348Z" transform="translate(-3020.174 -935.011)" fill="#9ec8ff"/>
    <path id="Trazado_13355" data-name="Trazado 13355" d="M5169.757-835.413a3.481,3.481,0,0,1-3.481,3.481,3.481,3.481,0,0,1-3.481-3.481,3.481,3.481,0,0,1,3.481-3.481A3.481,3.481,0,0,1,5169.757-835.413Z" transform="translate(-2463.124 -495.886)" fill="#9ec8ff"/>
    <circle id="Elipse_646" data-name="Elipse 646" cx="2.712" cy="2.712" r="2.712" transform="translate(2767.126 -1285.959) rotate(-80.783)" fill="#9ec8ff"/>
    <g id="Grupo_13687" data-name="Grupo 13687" transform="translate(2617.259 -1348.777)">
      <path id="Rectngulo_2837" data-name="Rectngulo 2837" d="M8.169,0H51.76a8.17,8.17,0,0,1,8.17,8.17V18.914a8.17,8.17,0,0,1-8.17,8.17H8.17A8.17,8.17,0,0,1,0,18.914V8.169A8.169,8.169,0,0,1,8.169,0Z" transform="translate(0 0)" fill="#9ec8ff"/>
      <rect id="Rectngulo_2838" data-name="Rectngulo 2838" width="56.653" height="18.697" rx="6.6" transform="translate(1.639 7.116)" fill="#fff"/>
      <g id="Grupo_13686" data-name="Grupo 13686" transform="translate(2.471 1.993)">
        <path id="Rectngulo_2839" data-name="Rectngulo 2839" d="M1.056,0h.235A1.056,1.056,0,0,1,2.348,1.056v0A1.056,1.056,0,0,1,1.291,2.113H1.057A1.057,1.057,0,0,1,0,1.056v0A1.056,1.056,0,0,1,1.056,0Z" fill="#fff"/>
        <path id="Rectngulo_2840" data-name="Rectngulo 2840" d="M1.056,0h.235A1.056,1.056,0,0,1,2.348,1.056v0A1.056,1.056,0,0,1,1.291,2.113H1.057A1.057,1.057,0,0,1,0,1.056v0A1.056,1.056,0,0,1,1.056,0Z" transform="translate(4.269)" fill="#fff"/>
        <rect id="Rectngulo_2841" data-name="Rectngulo 2841" width="2.348" height="2.113" rx="1.056" transform="translate(8.537)" fill="#fff"/>
      </g>
      <path id="Trazado_13356" data-name="Trazado 13356" d="M4781.746-870.007h-29.966a.9.9,0,0,1-.9-.9.9.9,0,0,1,.9-.9h29.966a.9.9,0,0,1,.9.9A.9.9,0,0,1,4781.746-870.007Z" transform="translate(-4725.759 881.221)" fill="#9ec8ff"/>
      <path id="Trazado_13357" data-name="Trazado 13357" d="M4619.689-770.563h-29.966a.9.9,0,0,1-.9-.9.9.9,0,0,1,.9-.9h29.966a.9.9,0,0,1,.9.9A.9.9,0,0,1,4619.689-770.563Z" transform="translate(-4586.242 795.607)" fill="#9ec8ff"/>
      <path id="Rectngulo_2842" data-name="Rectngulo 2842" d="M.9,0H2.817a.9.9,0,0,1,.9.9v0a.9.9,0,0,1-.9.9H.9A.9.9,0,0,1,0,.9v0A.9.9,0,0,1,.9,0Z" transform="translate(35.56 23.251)" fill="#9ec8ff"/>
      <path id="Rectngulo_2843" data-name="Rectngulo 2843" d="M.9,0H2.818a.9.9,0,0,1,.9.9v0a.9.9,0,0,1-.9.9H.9A.9.9,0,0,1,0,.9v0A.9.9,0,0,1,.9,0Z" transform="translate(40.235 23.251)" fill="#9ec8ff"/>
      <path id="Trazado_13358" data-name="Trazado 13358" d="M4663.919-838.356h-49.625a.61.61,0,0,1-.608-.608.61.61,0,0,1,.608-.608h49.625a.61.61,0,0,1,.608.608A.61.61,0,0,1,4663.919-838.356Z" transform="translate(-4607.645 853.476)" fill="#9ec8ff"/>
      <path id="Trazado_13359" data-name="Trazado 13359" d="M4663.919-819.48h-49.625a.61.61,0,0,1-.608-.608.61.61,0,0,1,.608-.608h49.625a.61.61,0,0,1,.608.608A.61.61,0,0,1,4663.919-819.48Z" transform="translate(-4607.645 837.225)" fill="#9ec8ff"/>
    </g>
    <circle id="Elipse_647" data-name="Elipse 647" cx="6.883" cy="6.883" r="6.883" transform="matrix(0.23, -0.973, 0.973, 0.23, 2312.567, -1344.347)" fill="#9ec8ff"/>
    <path id="Trazado_13360" data-name="Trazado 13360" d="M2817.631-810.113h-49.463a.921.921,0,0,1-.918-.919.921.921,0,0,1,.918-.919h49.463a.921.921,0,0,1,.918.919A.921.921,0,0,1,2817.631-810.113Z" transform="translate(-400.752 -519.083)" fill="#9ec8ff"/>
    <path id="Trazado_13361" data-name="Trazado 13361" d="M2817.631-777.124h-49.463a.921.921,0,0,1-.918-.919.921.921,0,0,1,.918-.919h49.463a.921.921,0,0,1,.918.919A.921.921,0,0,1,2817.631-777.124Z" transform="translate(-400.752 -547.484)" fill="#9ec8ff"/>
    <g id="Grupo_13691" data-name="Grupo 13691" transform="translate(2534.015 -1296.632)">
      <path id="Trazado_13362" data-name="Trazado 13362" d="M4040.328-527.018a34.757,34.757,0,0,0,.217-3.864c0-.689-.022-1.374-.062-2.053L4034.1-535a28.058,28.058,0,0,0-2.26-7.65l4.233-5.209a34.486,34.486,0,0,0-3.354-4.875l-6.385,2.084a28.365,28.365,0,0,0-6.321-4.859l.363-6.709a34.166,34.166,0,0,0-5.574-1.976l-3.943,5.441a28.444,28.444,0,0,0-4.726-.4,28.56,28.56,0,0,0-3.245.187l-3.65-5.643a34.159,34.159,0,0,0-5.671,1.676l.008,6.719a28.312,28.312,0,0,0-6.57,4.519l-6.265-2.417a34.572,34.572,0,0,0-3.607,4.69l3.953,5.427a28.058,28.058,0,0,0-2.665,7.519l-6.484,1.725a34.812,34.812,0,0,0-.217,3.864c0,.689.023,1.373.063,2.053l6.385,2.066a28.05,28.05,0,0,0,2.261,7.65l-4.234,5.209a34.5,34.5,0,0,0,3.354,4.875l6.385-2.083a28.375,28.375,0,0,0,6.321,4.859l-.363,6.709a34.154,34.154,0,0,0,5.574,1.975l3.943-5.441a28.444,28.444,0,0,0,4.725.4,28.575,28.575,0,0,0,3.246-.186l3.65,5.642a34.142,34.142,0,0,0,5.672-1.676l-.008-6.719a28.325,28.325,0,0,0,6.569-4.519l6.264,2.417a34.53,34.53,0,0,0,3.607-4.69l-3.953-5.427a28.071,28.071,0,0,0,2.665-7.519Zm-34.2,9.634a13.5,13.5,0,0,1-13.5-13.5,13.5,13.5,0,0,1,13.5-13.5,13.5,13.5,0,0,1,13.5,13.5A13.5,13.5,0,0,1,4006.132-517.384Z" transform="translate(-3971.718 564.604)" fill="#9ec8ff" opacity="0.5"/>
      <g id="Grupo_13688" data-name="Grupo 13688" transform="translate(52.128 25.435)">
        <path id="Trazado_13363" data-name="Trazado 13363" d="M4347.219-357.854a.693.693,0,0,1-.444-.161.7.7,0,0,1-.09-.979,22.631,22.631,0,0,0,5.217-14.445,22.569,22.569,0,0,0-1.227-7.365.7.7,0,0,1,.431-.884.7.7,0,0,1,.884.431,23.957,23.957,0,0,1,1.3,7.818,24.026,24.026,0,0,1-5.538,15.334A.693.693,0,0,1,4347.219-357.854Z" transform="translate(-4346.524 381.726)" fill="#fff"/>
      </g>
      <g id="Grupo_13689" data-name="Grupo 13689" transform="translate(42.152 11.116)">
        <path id="Trazado_13364" data-name="Trazado 13364" d="M4283.51-478.347a.692.692,0,0,1-.476-.189,22.476,22.476,0,0,0-7.783-4.8.7.7,0,0,1-.417-.891.7.7,0,0,1,.891-.417,23.863,23.863,0,0,1,8.261,5.09.7.7,0,0,1,.03.983A.694.694,0,0,1,4283.51-478.347Z" transform="translate(-4274.793 484.681)" fill="#fff"/>
      </g>
      <g id="Grupo_13690" data-name="Grupo 13690" transform="translate(28.483 9.725)">
        <path id="Trazado_13365" data-name="Trazado 13365" d="M4177.208-492.581a.7.7,0,0,1-.674-.525.7.7,0,0,1,.5-.844,24.086,24.086,0,0,1,5.891-.729.7.7,0,0,1,.7.7.7.7,0,0,1-.7.7,22.694,22.694,0,0,0-5.551.686A.706.706,0,0,1,4177.208-492.581Z" transform="translate(-4176.513 494.679)" fill="#fff"/>
      </g>
    </g>
  </g>
</svg>
